<?xml version="1.0" encoding="utf-8"?>
<!-- Generator: Adobe Illustrator 23.0.1, SVG Export Plug-In . SVG Version: 6.00 Build 0)  -->
<svg version="1.1" xmlns="http://www.w3.org/2000/svg" xmlns:xlink="http://www.w3.org/1999/xlink" x="0px" y="0px"
	 viewBox="0 0 224.24 321.8" style="enable-background:new 0 0 224.24 321.8;" xml:space="preserve">
<style type="text/css">
	.st0{display:none;}
	.st1{display:inline;}
	.st2{fill:#AF71B0;}
	.st3{fill:#AF71B0;stroke:#AF71B0;stroke-width:2;stroke-miterlimit:10;}
	.st4{fill:#AF71B0;stroke:#AF71B0;stroke-miterlimit:10;}
	.st5{display:inline;fill:none;stroke:#DCCEE7;stroke-miterlimit:10;}
	.st6{display:inline;fill:#FFFFFF;stroke:#FFFFFF;stroke-width:2;stroke-miterlimit:10;}
	.st7{display:inline;fill:#FFFFFF;stroke:#DCCEE7;stroke-width:2;stroke-miterlimit:10;}
	.st8{fill:none;stroke:#AF71B0;stroke-width:2;stroke-miterlimit:10;}
	.st9{fill:none;stroke:#AF71B0;stroke-miterlimit:10;}
	.st10{display:inline;stroke:#DCCEE7;stroke-miterlimit:10;}
	.st11{display:inline;fill:none;}
	.st12{display:inline;fill:#4FC4CB;}
	.st13{font-family:'Roboto-Bold';}
	.st14{font-size:48px;}
	.st15{fill:none;stroke:#DCCEE7;stroke-miterlimit:10;}
	.st16{fill:#FFFFFF;stroke:#FFFFFF;stroke-width:2;stroke-miterlimit:10;}
	.st17{fill:#FFFFFF;stroke:#DCCEE7;stroke-width:2;stroke-miterlimit:10;}
	.st18{stroke:#DCCEE7;stroke-miterlimit:10;}
</style>
<g id="Logo_1" class="st0">
	<g class="st1">
		<g>
			<path class="st2" d="M16.31,258.69c0.41-2.67-2.46-5.93-5.43-7.43c-2.14-1.08-4.08-1.13-6.83-1.2c-2.39-0.06-3.64,0.29-4.25,0.49
				c-1.58,0.52-2.73,1.33-3.44,1.92c0.82,0.04,2.08,0.16,3.56,0.56c0.7,0.19,2.79,0.76,2.75,1.32c-0.02,0.24-0.43,0.4-1.32,0.66
				c-1.02,0.3-2.41,0.65-4.13,0.93c0.45-0.1,1.52-0.26,2.7,0.22c0.67,0.27,1.14,0.65,1.43,0.94c-0.22,0.17-0.46,0.33-0.72,0.5
				c-1.2,0.77-2.39,1.24-3.43,1.54c0.63,0.05,1.51,0.14,2.55,0.27c0.85,0.1,1.7,0.22,2.54,0.38c0.92,0.17,2.68,0.63,4.86,1.48
				c4.67,1.84,6.27,3.69,7.36,2.95c0.16-0.11,0.25-0.24,1.31-3.86C16.15,259.28,16.31,258.74,16.31,258.69z"/>
			<g>
				<path class="st2" d="M17.06,258.69c0.22-10.03-15.09-11.51-21.23-6.75c-0.56,0.44-0.04,1.24,0.53,1.28
					c0.25,0.02,4.71,0.42,4.72,1c0.01,0.37-3.65,0.93-4.06,1.01c-0.96,0.17-0.54,1.58,0.4,1.45c1.13,0.32,2.27,0.64,3.4,0.97
					c0.05-0.39,0.1-0.79,0.15-1.18c-1.28,0.88-2.45,1.46-3.96,1.96c-0.83,0.27-0.63,1.39,0.2,1.47c3.86,0.37,7.34,1.04,10.89,2.61
					c1.44,0.63,4.12,2.81,5.88,2.63c2.37-0.25,2.59-4.52,3.05-6.23c0.25-0.93-1.19-1.33-1.45-0.4c-0.28,1.03-0.63,3.97-1.39,4.68
					c-0.86,0.8-2.98-0.88-4.2-1.47c-4.13-2.01-8.25-2.88-12.78-3.31c0.07,0.49,0.13,0.98,0.2,1.47c1.56-0.51,2.96-1.17,4.32-2.11
					c0.36-0.25,0.55-0.85,0.15-1.18c-1.46-1.2-2.99-1.62-4.86-1.35c0.13,0.48,0.27,0.96,0.4,1.45c1.77-0.32,4.42-0.46,5.78-1.78
					c0.23-0.23,0.29-0.63,0.12-0.91c-1.2-1.96-4.96-2.1-6.96-2.25c0.18,0.43,0.35,0.85,0.53,1.28c5.15-3.99,18.86-2.91,18.67,5.69
					C15.54,259.66,17.04,259.66,17.06,258.69z"/>
			</g>
		</g>
		<g>
			<path class="st2" d="M135.96,152.63c-0.63,0.07-1.3,3.02-0.32,5.66c0.16,0.43,1.29,3.34,4.32,4.34c2.88,0.95,6.01-0.32,6-1
				c-0.02-0.73-3.67-0.05-6.5-2.5C136.5,156.57,136.7,152.55,135.96,152.63z"/>
			<g>
				<path class="st2" d="M135.77,152.31c-1.03,0.5-1.02,2.42-1,3.36c0.04,1.45,0.42,2.87,1.18,4.11c1.86,3.05,5.86,4.55,9.21,2.97
					c0.53-0.25,1.49-0.74,1.05-1.47c-0.46-0.76-2.88-0.69-3.62-0.92c-2.97-0.89-4.61-3.12-5.47-5.97c-0.17-0.56-0.29-1.98-1.06-2.12
					c-0.47-0.09-0.67,0.63-0.2,0.72c0.32,0.06,0.76,2.34,0.87,2.64c0.32,0.87,0.73,1.71,1.28,2.46c1.62,2.22,3.94,2.99,6.53,3.43
					c0.47,0.08,0.91-0.02,0.78,0.31c-0.12,0.31-1.38,0.55-1.64,0.6c-2.21,0.49-4.53-0.14-6.1-1.77c-0.65-0.67-1.18-1.5-1.53-2.37
					c-0.38-0.95-1.25-4.69,0.11-5.35C136.59,152.75,136.21,152.1,135.77,152.31z"/>
			</g>
		</g>
		<ellipse class="st3" cx="132.46" cy="112.13" rx="6.5" ry="10.5"/>
		<ellipse class="st3" cx="171.46" cy="103.63" rx="5.5" ry="10"/>
		<path class="st4" d="M73.69,295.15c-0.27-1.22,0.33-2.74,1.07-3.72c0.36-0.46,1.17-1.36,3.06-1.98c4.15-1.36,5.76,1.16,8.92,0.08
			c2.96-1.01,2.48-3.55,6.11-4.95c0.82-0.32,3.38-1.3,5.7-0.08c2.92,1.54,3.19,5.37,3.22,5.94c0.22,4.19-3.02,7.05-3.47,7.43
			c-3.41,2.9-7.74,2.45-12.96,1.9C82.31,299.45,74.46,298.63,73.69,295.15z"/>
		<path class="st4" d="M41.4,286.48c1.08,1.81,2.64,2.97,2.64,2.97c0.23,0.17,1.53,1.14,2.89,1.49c3.44,0.87,7.24-2.2,9.08-4.54
			c2.72-3.45,2.79-7.33,2.72-8.83c-0.06-1.3-0.28-6.13-4.21-9.25c-2.61-2.07-7.19-3.65-10.32-1.65c-2.06,1.32-2.53,3.69-3.47,8.42
			C40.13,278.18,39.26,282.89,41.4,286.48z"/>
		<path class="st4" d="M64.44,238.75c-0.52,1.45,0.67,3.13,1.9,4.87c1,1.41,2.38,3.36,5.04,4.13c2.89,0.84,5.33-0.28,5.94-0.58
			c3.01-1.44,4.17-4.11,4.46-4.87c0.65-1.69,1.49-5.4-0.33-7.02c-0.86-0.76-1.88-0.67-7.93,0.5
			C66.12,237.21,64.85,237.61,64.44,238.75z"/>
		<path class="st4" d="M109.77,247.5c-1.7,0.22-2.95,1.83-5.45,5.04c-2.36,3.03-3.78,4.91-4.13,7.76c-0.16,1.29-0.41,3.39,0.83,5.12
			c1.77,2.48,5.65,2.81,8.17,2.15c5.82-1.52,9.97-9.71,7.51-15.19C115.54,249.77,112.59,247.14,109.77,247.5z"/>
		<path class="st4" d="M143.87,230.83c-2.09-0.98-5.67,2.69-6.03,3.06c-2.68,2.76-3.28,6.03-3.55,7.6
			c-0.27,1.61-1.28,8.96,3.72,13.95c1.41,1.41,4.87,4.2,6.77,3.14c1.9-1.06,0.42-4.97,0.17-14.45
			C144.71,235.49,145.74,231.71,143.87,230.83z"/>
		<path class="st4" d="M116.29,202.17c-0.49,0.04-1.51,0.15-2.48,0.83c-2.36,1.64-2.75,5.52-1.9,8.17c1.66,5.15,8.23,6.37,9.08,6.52
			c1.15,0.21,7.01,1.14,11.06-2.89c2.17-2.16,3.58-5.5,3.06-8.59c-0.14-0.8-0.34-2.02-1.32-2.81c-1.54-1.24-4.01-0.61-6.11-0.08
			c-2.61,0.66-2.22,1.15-3.55,1.24C120.91,204.79,119.7,201.86,116.29,202.17z"/>
		<path class="st4" d="M108.37,162.79c1.24-0.51,5.3,3.86,6.28,9.17c1.53,8.35-5.06,16.52-6.44,16.02
			c-0.93-0.33,0.92-4.44,0.74-13.38C108.79,167,107.31,163.22,108.37,162.79z"/>
		<path class="st4" d="M139.44,73.94c-0.66-0.01-1.76-0.03-2.81,0.58c-2.18,1.26-3.01,4.24-2.31,6.61c0.04,0.15,1.01,3.41,3.39,3.72
			c1.82,0.24,3.24-1.42,4.38-2.72c0.77-0.89,1.85-2.13,1.9-3.96c0.01-0.46,0.06-1.95-0.99-3.06
			C141.92,73.97,140.37,73.95,139.44,73.94z"/>
		<path class="st4" d="M145.52,280.61c-1.03-0.54-3.59,1.07-4.18,3.52c-0.69,2.84,1.57,5.56,2.75,5.39
			C145.95,289.27,147.26,281.52,145.52,280.61z"/>
		<path class="st4" d="M65.71,306.05c-1.5-0.88-4.22,0.21-5.28,1.98c-2.1,3.49,2.56,9.21,4.51,8.81
			C67.13,316.38,68.5,307.7,65.71,306.05z"/>
	</g>
	<path class="st5" d="M29.93,250.5"/>
	<path class="st5" d="M27.64,243.32"/>
	<path class="st5" d="M18.97,124.01"/>
	<ellipse class="st6" cx="130.46" cy="108.63" rx="1.5" ry="2"/>
	<ellipse class="st6" cx="168.96" cy="101.13" rx="1" ry="1.5"/>
	<path class="st5" d="M166.46,140.13"/>
	<path class="st5" d="M165.46,52.13"/>
	<path class="st5" d="M165.46,53.13"/>
	<path class="st5" d="M165.46,44.13"/>
	<path class="st5" d="M119.46,45.13"/>
	<path class="st5" d="M120.46,61.13"/>
	<path class="st5" d="M143.46,50.13"/>
	<path class="st5" d="M108.46,75.13"/>
	<path class="st5" d="M111.46,74.13"/>
	<path class="st5" d="M108.46,87.13"/>
	<path class="st5" d="M110.46,92.13"/>
	<path class="st5" d="M105.46,81.13"/>
	<path class="st5" d="M103.46,91.13"/>
	<path class="st5" d="M97.46,89.13"/>
	<path class="st5" d="M96.46,85.13"/>
	<path class="st5" d="M108.46,88.13"/>
	<path class="st5" d="M104.42,99.71"/>
	<path class="st5" d="M108.7,129.84"/>
	<path class="st7" d="M153.56,125.61"/>
	<g class="st1">
		<g>
			<g>
				<path class="st2" d="M167.82,142.35c0.18-1.55,0.05-3.1-0.33-4.62c-0.47-1.87-3.37-1.08-2.89,0.8c0.32,1.27,0.37,2.52,0.22,3.82
					c-0.09,0.81,0.75,1.5,1.5,1.5C167.2,143.85,167.73,143.16,167.82,142.35L167.82,142.35z"/>
			</g>
		</g>
		<g>
			<g>
				<g>
					<path class="st2" d="M33.97,94.15c3.46-1.45,3.34-7.98,4.85-10.94c2.64-5.16,7.42-8.97,12.67-11.26
						c8.83-3.85,20.5-2.79,26.22,5.74c4.4,6.55,4.16,14.46,1.45,21.51c-1.27,3.3-3.02,6.39-5.15,9.2c-1.01,1.32-2.08,2.61-3.26,3.79
						c-0.68,0.68-0.67,0.78,0.1-0.13c-0.87,1.02-1.72,2.04-2.64,3.02c-6.41,6.91-13.79,12.95-21.37,18.51
						c-3,2.2-6.05,4.31-9.15,6.36c-1.52,1.01-3.12,2.35-4.79,3.09c-1.97,0.88-0.99,1.07-3.58,0.6c-1.94-0.35-2.67-1.05-4.11-2.23
						c-5.44-4.45-10.68-9.17-15.57-14.23c-11.16-11.56-20.22-24.35-21.53-40.71c-1.39-17.42,17.6-22.57,29.84-13.82
						c3.84,2.74,7,6.23,9.19,10.41c1.25,2.39,2.56,10.53,6.02,11.11c1.89,0.32,2.7-2.57,0.8-2.89c-1.07-0.18-2.45-5.84-2.86-6.81
						c-1.19-2.77-2.62-5.42-4.51-7.78c-2.61-3.26-5.94-6.12-9.55-8.2C7.92,63.19-5,64.01-11.6,73.05
						c-6.82,9.33-2.1,23.67,2.02,33.18c2.69,6.22,7.18,11.84,11.54,16.94c4.81,5.63,10.11,10.83,15.67,15.72
						c4.06,3.56,9.19,10.51,15.11,7.78c7.35-3.39,14.39-9.42,20.76-14.38c4.65-3.62,9.16-7.44,13.38-11.56
						C76.9,110.95,87.18,97.98,83.29,83c-3.4-13.12-16.79-18.57-29.22-15.16c-3.87,1.06-7.57,3.02-10.72,5.47
						c-2.92,2.26-5.41,5.09-7.12,8.38c-0.81,1.57-1.43,3.24-1.93,4.93c-0.11,0.36-0.81,4.5-1.13,4.64
						C31.42,91.99,32.19,94.9,33.97,94.15z"/>
				</g>
			</g>
			<g>
				<g>
					<path class="st2" d="M14.65,122.94c1.93,4.7,5.28,8.54,9.8,10.91c1.71,0.9,3.23-1.69,1.51-2.59c-3.78-1.99-6.79-5.15-8.42-9.12
						C16.82,120.38,13.92,121.15,14.65,122.94L14.65,122.94z"/>
				</g>
			</g>
			<g>
				<g>
					<path class="st2" d="M28.67,147.27c0.55,12.15-1.3,23.48-3.38,35.37c-2.05,11.71-1.91,23.54-1.98,35.38
						c-0.08,14.4-1.46,27.64,11,37.51c1.5,1.19,3.63-0.92,2.12-2.12c-5.51-4.37-9.12-9.82-9.77-16.77
						c-0.72-7.8-0.39-15.74-0.32-23.56c0.09-11.5,0.4-22.72,2.67-34.04c2.12-10.54,3.14-21,2.65-31.77
						C31.59,145.34,28.59,145.33,28.67,147.27L28.67,147.27z"/>
				</g>
			</g>
			<g>
				<g>
					<path class="st2" d="M28.15,247.07c-2.3,3.38-7.82-0.19-10.6-1.51c-0.89-0.42-3.82-1.4-4.23-2.42
						c-0.94-2.31,2.97-4.31,4.84-3.91c2.29,0.49,3.59,3.32,4.84,5.16c1.64,2.41,3.86,7.54,7.66,5.9c3.14-1.36,5.93-6.78,7.51-9.64
						c1.34-2.43,3.02-4.91,1.55-7.63c-1.19-2.19-4.16-3.9-6.63-4.12C24.27,228.12,30.57,242.68,28.15,247.07
						c-0.93,1.69,1.66,3.21,2.59,1.51c1.72-3.1,0.95-6.79,0.78-10.18c-0.12-2.33-0.69-7.74,3.27-5.87c3.79,1.79,1.9,4.63,0.45,7.21
						c-0.75,1.34-3.2,6.28-4.78,6.76c-3.04,0.92-5.29-4.38-6.71-6.31c-1.6-2.18-3.3-4.41-6.25-4.33c-4.43,0.12-10,5.83-5.96,9.69
						c2.64,2.53,7.19,3.92,10.49,5.22c3.62,1.42,6.43,1.18,8.72-2.19C31.83,246.98,29.23,245.48,28.15,247.07z"/>
				</g>
			</g>
			<g>
				<g>
					<path class="st2" d="M32.57,247.12c1.63-1.74,3.36-3.85,5.52-4.95c3.44-1.74,8.1-0.65,9.43,3.13c0.83,2.36,0.23,2.29-1.1,4.38
						c-1.09,1.71-2.06,3.48-2.97,5.28c0.91,0.12,1.83,0.24,2.74,0.36c-1.23-3.2-4.4-7.64-8.4-7.15c-1.4,0.17-2.34,1.02-3.21,2.05
						c-2.37,2.8-3.17,6.32-6.01,8.91c-2.15,1.96-5.62,4.44-8.65,4.37c-6.34-0.13,0.39-4.87,2.79-5.98
						C27.96,255.08,28.95,251.28,32.57,247.12c1.26-1.45-0.85-3.58-2.12-2.12c-1.93,2.21-3.03,4.95-4.89,7.14
						c-2.06,2.42-5.39,2.73-7.84,4.53c-2.57,1.89-5.92,6.89-2.07,9.29c3.68,2.3,9.68-0.69,12.66-2.79c2.07-1.46,3.92-3.25,5.39-5.32
						c0.95-1.33,1.6-3.94,2.76-4.98c3.38-3.04,5.82,0.6,6.84,3.26c0.42,1.1,2.11,1.61,2.74,0.36c2.75-5.44,8.34-10.1,2.37-15.37
						c-6.53-5.76-13.02-1.39-17.95,3.89C29.13,246.41,31.25,248.54,32.57,247.12z"/>
				</g>
			</g>
			<g>
				<g>
					<path class="st2" d="M60.29,293.04c15.44,9.22,37.69,13.05,53.09,1.73c1.54-1.13,0.04-3.74-1.51-2.59
						c-14.56,10.71-35.46,6.98-50.06-1.73C60.14,289.46,58.63,292.06,60.29,293.04L60.29,293.04z"/>
				</g>
			</g>
			<g>
				<g>
					<path class="st2" d="M46.96,323.62c6.09,3.27,13.52,5.83,19.25,0.66c1.44-1.3-0.69-3.41-2.12-2.12
						c-4.56,4.12-10.93,1.39-15.62-1.13C46.78,320.12,45.26,322.71,46.96,323.62L46.96,323.62z"/>
				</g>
			</g>
			<g>
				<g>
					<path class="st2" d="M65.21,326.62c4.47,1.99,9.74,1.92,13.1-2.06c1.24-1.47-0.87-3.6-2.12-2.12
						c-2.44,2.89-6.15,3.07-9.47,1.59C64.98,323.26,63.45,325.84,65.21,326.62L65.21,326.62z"/>
				</g>
			</g>
			<g>
				<g>
					<path class="st2" d="M64.73,334.69c5.41,1.28,12.05,1.4,14.03-4.91c1.06-3.39,0.81-7.28,1-10.77
						c0.33-6.03,1.04-12.02,2.18-17.95c0.36-1.89-2.53-2.69-2.89-0.8c-1.38,7.18-2.07,14.39-2.42,21.7
						c-0.12,2.44,0.15,5.89-1.18,8.09c-2.08,3.43-6.65,2.52-9.91,1.75C63.65,331.35,62.85,334.24,64.73,334.69L64.73,334.69z"/>
				</g>
			</g>
			<g>
				<g>
					<path class="st2" d="M130.18,290.53c-0.83,9.28-1.93,18.54-3.36,27.75c-0.29,1.87-0.59,3.73-0.91,5.6
						c-0.28,1.67-0.29,6.11-1.45,7.38c-2.59,2.81-9.44-0.2-12.44-1.11c0.37,0.48,0.73,0.96,1.1,1.45
						c-0.84-11.39-2.6-22.65-5.29-33.75c-0.45-1.88-3.35-1.08-2.89,0.8c2.63,10.84,4.36,21.83,5.18,32.95
						c0.05,0.68,0.43,1.24,1.1,1.45c3.53,1.07,7.96,2.88,11.69,2.25c4.38-0.74,4.74-4.06,5.4-7.82c2.16-12.24,3.75-24.56,4.86-36.94
						C133.35,288.6,130.35,288.61,130.18,290.53L130.18,290.53z"/>
				</g>
			</g>
			<g>
				<g>
					<path class="st2" d="M147.39,178.92c-3.09,7.05-3.14,14.23-3.52,21.78c-0.28,5.71-0.47,11.43-0.47,17.15
						c0,12.59,0.35,25.17,0.74,37.75c0.25,8.08,1.18,16.42,0.82,24.48c-0.22,4.93-0.98,9.9-1.55,14.8
						c-0.85,7.26-1.98,14.45-3.3,21.64c-0.33,1.8-0.64,3.6-1.03,5.38c-0.36,1.67-0.89,6.46-2.39,7.48
						c-1.82,1.25-6.57-0.51-8.62-0.99c-1.88-0.44-2.68,2.45-0.8,2.89c2.83,0.67,7.44,2.22,10.28,1.01
						c3.94-1.68,4.28-8.77,4.95-12.28c2.11-11.01,3.63-22.06,4.79-33.21c1.19-11.48,0.08-23.01-0.26-34.53
						c-0.32-10.64-0.58-21.29-0.63-31.94c-0.02-5.04,0.03-10.08,0.25-15.11c0.35-8.28-0.06-17.07,3.32-24.79
						C150.75,178.68,148.17,177.16,147.39,178.92L147.39,178.92z"/>
				</g>
			</g>
			<g>
				<g>
					<path class="st2" d="M110.11,323.01c5.04,4.13,12.18,4.59,17.56,0.78c1.56-1.11,0.07-3.71-1.51-2.59
						c-4.2,2.97-9.89,2.99-13.93-0.32C110.75,319.68,108.62,321.79,110.11,323.01L110.11,323.01z"/>
				</g>
			</g>
			<g>
				<g>
					<path class="st2" d="M126.76,322.68c4.26,3.65,10.19,3.66,14.54,0.16c1.51-1.21-0.63-3.32-2.12-2.12
						c-3.01,2.41-7.38,2.34-10.3-0.16C127.42,319.31,125.29,321.43,126.76,322.68L126.76,322.68z"/>
				</g>
			</g>
			<g>
				<g>
					<path class="st2" d="M105.3,100.37c-0.91,13.01-1.18,26.08-0.64,39.12c0.43,10.44,1.58,20.84,1.84,31.28
						c0.19,8.05,0.14,16.19-1.31,24.13c-0.86,4.73-2.05,9.39-3.5,13.97c-2.08,6.56-4.33,14.14-8.45,19.73
						c-4.19,5.7-11.87,4.11-18.08,4.91c-6.05,0.78-12.07,2.45-17.35,5.57c-10.07,5.95-14.92,16.59-17.3,27.65
						c-2.61,12.08-2.68,25.28,0.38,37.26c1.36,5.34,2.71,10.69,3.9,16.07c0.8,3.6,0.89,7.83,2.19,11.26
						c3.11,8.22,17.75,9.04,19.84-0.29c0.93-4.17,0.26-8.88,0.45-13.14c0.33-7.46,1.08-14.91,1.92-22.33c0.22-1.92-2.79-1.9-3,0
						c-1.18,10.42-1.87,20.74-2.06,31.21c-0.05,2.87,0.03,6.54-3.6,7.75c-3.4,1.13-9.2-0.96-10.62-4.15
						c-1.27-2.88-1.32-6.92-1.98-10c-2.52-11.66-6.15-22.76-6.22-34.81c-0.08-11.81,1.62-25.22,8.37-35.24
						c7.5-11.12,20.6-13.78,33.11-14.37c10.48-0.49,13.79-6.86,17.54-15.82c6.66-15.91,9.15-31.64,8.8-48.74
						c-0.22-10.41-1.36-20.77-1.82-31.17c-0.59-13.29-0.32-26.62,0.61-39.89C108.43,98.44,105.43,98.45,105.3,100.37L105.3,100.37z"
						/>
				</g>
			</g>
			<g>
				<g>
					<path class="st2" d="M111.46,73.63c-5.8-0.13-12.78-2.35-18.43-0.41c-5.65,1.94-7.66,7.77-7.64,13.34
						c0.02,5.32,4.03,7.4,8.27,9.51c4.15,2.07,8.45,3.87,12.75,5.59c1.79,0.72,2.57-2.19,0.8-2.89c-5.26-2.1-14.19-4.39-17.58-9.12
						c-1.87-2.61-1.38-6.36-0.04-9.29c1.64-3.58,5-4.94,8.81-4.84c4.36,0.12,8.67,1.01,13.05,1.11
						C113.39,76.68,113.39,73.68,111.46,73.63L111.46,73.63z"/>
				</g>
			</g>
			<g>
				<g>
					<path class="st2" d="M109.94,81.76c-4.28-2.34-11.83-4.46-14.6,1.16c-3.48,7.05,6.81,9.93,11.72,10.66
						c1.89,0.28,2.7-2.61,0.8-2.89c-2.7-0.4-12.64-2.31-9.61-6.85c2.14-3.2,7.63-0.88,10.17,0.52
						C110.12,85.28,111.64,82.69,109.94,81.76L109.94,81.76z"/>
				</g>
			</g>
			<g>
				<g>
					<path class="st2" d="M109.24,92.19c0.35-2.93,0.87-5.82,1.53-8.7c0.43-1.88-2.47-2.68-2.89-0.8c-0.71,3.14-1.25,6.3-1.63,9.5
						C106,94.1,109.01,94.08,109.24,92.19L109.24,92.19z"/>
				</g>
			</g>
			<g>
				<g>
					<path class="st2" d="M112.91,75.53c2.36-5.89,6-11.01,10.61-15.34c1.41-1.32-0.71-3.44-2.12-2.12
						c-5.01,4.7-8.83,10.28-11.39,16.66C109.3,76.53,112.2,77.3,112.91,75.53L112.91,75.53z"/>
				</g>
			</g>
			<g>
				<g>
					<path class="st2" d="M127.45,66.39c-1.85-6.22-3.7-12.44-5.54-18.65c-0.55-1.85-3.44-1.06-2.89,0.8
						c1.85,6.22,3.7,12.44,5.54,18.65C125.11,69.03,128,68.24,127.45,66.39L127.45,66.39z"/>
				</g>
			</g>
			<g>
				<g>
					<path class="st2" d="M135.68,59.89c-3.68-4.93-6.99-10.1-9.92-15.51c-0.92-1.7-3.51-0.19-2.59,1.51
						c2.93,5.41,6.23,10.58,9.92,15.51C134.23,62.93,136.83,61.44,135.68,59.89L135.68,59.89z"/>
				</g>
			</g>
			<g>
				<g>
					<path class="st2" d="M112.21,40.79c0.09,4.53,2.61,8.91,7.8,8.11c4.2-0.64,6.3-4.29,6.57-8.23c0.31-4.46-2.18-8.86-7.11-8.86
						C114.38,31.81,112.15,36.3,112.21,40.79c0.03,1.93,3.03,1.93,3,0c-0.04-2.78,0.84-5.99,4.27-5.98
						c3.29,0.01,4.33,3.11,4.11,5.86c-0.17,2.06-0.93,4.19-3.01,5.02c-3.73,1.47-5.3-1.86-5.36-4.9
						C115.17,38.87,112.17,38.86,112.21,40.79z"/>
				</g>
			</g>
			<g>
				<g>
					<path class="st2" d="M131.63,54.81c5.85-4.29,16.43-4.46,23.08-2.07c1.82,0.65,2.6-2.24,0.8-2.89
						c-7.36-2.65-18.9-2.39-25.39,2.37C128.57,53.35,130.07,55.95,131.63,54.81L131.63,54.81z"/>
				</g>
			</g>
			<g>
				<g>
					<path class="st2" d="M158.02,37.73c-2.1,6.45-3.42,13.05-4,19.81c-0.17,1.92,2.84,1.91,3,0c0.56-6.5,1.87-12.82,3.89-19.01
						C161.51,36.69,158.61,35.9,158.02,37.73L158.02,37.73z"/>
				</g>
			</g>
			<g>
				<g>
					<path class="st2" d="M163.96,39.13c0.46,6.45,0.29,12.89-0.58,19.31c-0.26,1.89,2.63,2.7,2.89,0.8
						c0.91-6.69,1.17-13.36,0.69-20.1C166.83,37.22,163.83,37.2,163.96,39.13L163.96,39.13z"/>
				</g>
			</g>
			<g>
				<g>
					<path class="st2" d="M160.52,37.07c-1.85-1.5-2.43-4.08-1.93-6.38c0.59-2.71,3.15-5.46,5.79-3.02c1.76,1.63,2.06,4.2,1.71,6.45
						c-0.48,3.02-3.2,4.16-5.86,2.71c-1.7-0.92-3.21,1.67-1.51,2.59c3.37,1.82,8.39,1.21,9.89-2.82c1.42-3.81,0.62-8.76-2.53-11.46
						c-3.24-2.78-7.61-1.25-9.48,2.3c-1.94,3.67-1.53,9.03,1.82,11.75C159.89,40.4,162.02,38.29,160.52,37.07z"/>
				</g>
			</g>
			<g>
				<g>
					<path class="st2" d="M117.31,151.46c6.55-8.68,15.67-15.84,25.61-20.2c17-7.46,36.3-5.33,51.94,4.34
						c1.65,1.02,3.16-1.58,1.51-2.59c-16.04-9.92-35.84-12.26-53.41-5c-11.07,4.57-21.02,12.38-28.24,21.94
						C113.56,151.49,116.16,152.99,117.31,151.46L117.31,151.46z"/>
				</g>
			</g>
			<g>
				<g>
					<path class="st2" d="M104.66,123.36c4.36,15.9,8.87,34.95,21.75,46.34c10.56,9.34,25.38,12.98,38.89,8.46
						c11.61-3.89,22.51-13.26,27.64-24.43c7.01-15.27,5.77-32.87,2.2-48.85c-4.43-19.8-11.08-38.51-27.93-51.04
						c-1.55-1.15-3.05,1.45-1.51,2.59c14.33,10.67,20.41,25.83,24.87,42.52c4.02,15.02,6.64,31.6,2.12,46.81
						c-7.88,26.51-40.55,41.57-63.38,22.49c-13.08-10.93-17.46-29.98-21.76-45.69C107.05,120.7,104.15,121.49,104.66,123.36
						L104.66,123.36z"/>
				</g>
			</g>
			<g>
				<g>
					<path class="st2" d="M151.78,140.76c0.21,1.12,0.25,2.24,0.18,3.38c-0.12,1.93,2.88,1.92,3,0c0.09-1.4-0.03-2.79-0.29-4.17
						c-0.15-0.8-1.11-1.25-1.85-1.05C151.99,139.14,151.63,139.96,151.78,140.76L151.78,140.76z"/>
				</g>
			</g>
			<g>
				<g>
					<path class="st2" d="M170.62,58.22c5.45-1.18,14.21,0.52,19.01,3.48c8.57,5.28-1.06,11.33-6.23,13.59
						c-1.76,0.77-0.24,3.36,1.51,2.59c5.18-2.27,14.94-8.23,10.44-15.09c-4.5-6.84-18.16-9.07-25.53-7.46
						C167.94,55.74,168.74,58.63,170.62,58.22L170.62,58.22z"/>
				</g>
			</g>
			<g>
				<g>
					<path class="st2" d="M177.45,67.01c1.16-0.03,2.32-0.05,3.48-0.04c1.06,0.01,2.55-0.15,3.58,0.17
						c1.03,0.32,1.51,1.69,0.96,2.59c-0.5,0.82-2.62,1.61-3.42,2.07c-1.68,0.95-0.17,3.55,1.51,2.59c1.55-0.88,4.06-1.71,4.81-3.46
						c0.57-1.33,0.34-3.27-0.3-4.54c-1.73-3.43-7.49-2.47-10.62-2.38C175.52,64.07,175.51,67.07,177.45,67.01L177.45,67.01z"/>
				</g>
			</g>
			<ellipse class="st8" cx="134.46" cy="112.13" rx="9" ry="12.5"/>
			<ellipse class="st8" cx="174.46" cy="103.13" rx="8.5" ry="12.5"/>
			<path class="st9" d="M165.46,140.13"/>
			<path class="st9" d="M59.21,326.52"/>
		</g>
	</g>
	<path class="st10" d="M142.47,75.76"/>
	<g class="st1">
		<g>
			<path class="st2" d="M204.48,278.1c0.53-1.32,2.01-4.77,4.41-10.35c2.41-5.59,5.55-12.86,9.43-21.83
				c3.88-8.97,8.25-19.16,13.11-30.57c4.86-11.41,10.01-23.5,15.45-36.27c0.27-0.66,0.56-1.53,0.87-2.61
				c0.31-1.08,0.47-2.14,0.47-3.17c0-1.03-0.29-1.9-0.87-2.61c-0.58-0.7-1.81-1.06-3.68-1.06c-3.75,0-6.85,1.34-9.3,4.01
				c-2.45,2.68-4.28,5.99-5.48,9.93c-1.2,3.94-1.81,7.84-1.81,11.69c0,0.94,0.02,1.74,0.07,2.39c0.04,0.66,0.11,1.32,0.2,1.97
				c-1.7,0-3.06-0.63-4.08-1.9c-1.03-1.27-1.79-2.82-2.27-4.65c-0.49-1.83-0.74-3.5-0.74-5c0-3.1,0.8-6.06,2.41-8.87
				s3.68-5.35,6.22-7.61c2.54-2.25,5.35-4.01,8.43-5.28c3.08-1.27,6.09-1.9,9.03-1.9s5.42,0.87,7.42,2.61
				c2.01,1.74,3.52,4.86,4.55,9.37c1.02,4.51,1.54,11.04,1.54,19.58c0,5.82-0.2,12.02-0.6,18.59c-0.4,6.57-0.83,13.05-1.27,19.44
				c-0.45,6.39-0.76,12.21-0.94,17.47c1.43-5.73,3.46-11.83,6.09-18.31c2.63-6.48,5.53-12.94,8.7-19.37
				c3.16-6.43,6.31-12.47,9.43-18.1c3.12-5.63,5.93-10.52,8.43-14.65c2.5-4.13,4.32-7.14,5.48-9.02c1.25-1.88,2.32-3.31,3.21-4.3
				c0.89-0.99,2.05-1.48,3.48-1.48c1.25,0,2.68,0.33,4.28,0.99c-0.63,1.69-1.49,4.2-2.61,7.54c-1.12,3.33-2.25,7.4-3.41,12.18
				c-1.43,5.73-2.86,12.23-4.28,19.51c-1.43,7.28-2.74,14.67-3.95,22.19c-1.2,7.51-2.16,14.58-2.88,21.2
				c-0.71,6.62-1.07,12.18-1.07,16.69c0,2.06,0.09,3.66,0.27,4.79c0.18,1.13,0.42,2.13,0.74,3.03c0.31,0.89,0.65,2.14,1,3.73
				c-3.03,0-5.35-0.52-6.96-1.55c-1.61-1.03-2.68-2.7-3.21-5c-0.54-2.3-0.8-5.38-0.8-9.23c0-11.17,1.36-23.17,4.08-35.99
				c2.72-12.82,5.82-26.13,9.3-39.93c-2.59,3.48-5.28,7.87-8.09,13.17c-2.81,5.31-5.62,11.04-8.43,17.19
				c-2.81,6.15-5.48,12.3-8.03,18.45c-2.54,6.15-4.79,11.86-6.76,17.11c-1.96,5.26-3.48,9.63-4.55,13.1
				c-0.54,0.19-0.89,0.33-1.07,0.42c-0.18,0.09-0.49,0.14-0.94,0.14c-2.41,0-3.99-1.5-4.75-4.51c-0.76-3-1.14-7.23-1.14-12.68
				c0-3.85,0.11-8.43,0.33-13.73c0.22-5.3,0.47-10.78,0.74-16.41c0.27-5.63,0.51-11.06,0.74-16.27c0.22-5.21,0.33-9.7,0.33-13.45
				c0-1.88-0.02-3.43-0.07-4.65c-0.05-1.22-0.11-2.3-0.2-3.24c-7.14,17.47-13.11,32.38-17.93,44.72
				c-4.82,12.35-8.85,22.38-12.11,30.07c-3.26,7.7-6.13,13.33-8.63,16.9C209.34,276.32,206.89,278.1,204.48,278.1z"/>
			<path class="st2" d="M318.46,269.51c-3.48,0-6.07-1.15-7.76-3.45c-1.7-2.3-2.54-5.09-2.54-8.38c0-2.16,0.38-4.88,1.14-8.17
				c0.76-3.29,1.76-6.74,3.01-10.35c1.25-3.61,2.7-7.02,4.35-10.21c1.65-3.19,3.41-5.8,5.28-7.82c1.87-2.02,3.7-3.03,5.48-3.03
				c0.8,0,1.49,0.26,2.07,0.77c0.58,0.52,0.87,1.29,0.87,2.32c0,1.13-0.69,2.96-2.07,5.49c-1.38,2.54-3.01,5.45-4.88,8.73
				c-1.87,3.29-3.5,6.74-4.88,10.35c-1.38,3.62-2.07,7.07-2.07,10.35c0,3.38,0.54,5.63,1.61,6.76c1.07,1.13,2.72,1.69,4.95,1.69
				c3.03,0,6.26-1.6,9.7-4.79c3.43-3.19,7.07-8.78,10.9-16.76l1.2,1.41c-2.59,8.08-6.31,14.28-11.17,18.59
				C328.78,267.35,323.72,269.51,318.46,269.51z M334.51,205c-1.43,0-2.7-0.37-3.81-1.13c-1.12-0.75-1.67-1.92-1.67-3.52
				c0-1.97,1.09-3.68,3.28-5.14c2.18-1.45,4.35-2.18,6.49-2.18c1.34,0,2.41,0.33,3.21,0.99c0.8,0.66,1.2,1.79,1.2,3.38
				c0,1.78-0.92,3.5-2.74,5.14C338.63,204.17,336.65,205,334.51,205z"/>
			<path class="st2" d="M384.27,268.67c-3.12,0-5.46-0.85-7.02-2.54c-1.56-1.69-2.34-3.85-2.34-6.48c0-1.97,0.33-4.04,1-6.2
				c0.67-2.16,1.31-4.39,1.94-6.69c0.62-2.3,0.94-4.53,0.94-6.69c0-2.63-0.51-4.44-1.54-5.42c-1.03-0.99-2.3-1.48-3.81-1.48
				c-2.77,0-5.57,1.2-8.43,3.59c-2.85,2.39-5.62,5.45-8.29,9.16c-2.68,3.71-5.17,7.54-7.49,11.48c-2.32,3.94-4.37,7.47-6.15,10.56
				c-1.43,0-2.79-0.26-4.08-0.77c-1.29-0.52-2.3-1.29-3.01-2.32c0-0.47,0.47-1.92,1.4-4.37c0.94-2.44,2.03-5.45,3.28-9.02
				c1.25-3.57,2.36-7.23,3.34-10.99c0.98-3.75,1.47-7.18,1.47-10.28c0.54-0.66,1.38-1.31,2.54-1.97c1.16-0.66,2.36-0.99,3.61-0.99
				c2.41,0,3.61,1.22,3.61,3.66c0,1.5-0.4,4.01-1.2,7.54s-1.83,7.21-3.08,11.06c2.41-3.85,5.1-7.68,8.09-11.48
				c2.99-3.8,6.17-6.97,9.56-9.51c3.39-2.54,6.78-3.8,10.17-3.8c3.48,0,6,1.32,7.56,3.94c1.56,2.63,2.34,5.54,2.34,8.73
				c0,2.91-0.45,5.61-1.34,8.1c-0.89,2.49-1.81,4.88-2.74,7.18c-0.94,2.3-1.4,4.63-1.4,6.97c0,1.97,0.38,3.36,1.14,4.16
				c0.76,0.8,1.72,1.2,2.88,1.2c2.23,0,4.46-1.1,6.69-3.31c2.23-2.21,4.39-5,6.49-8.38c2.09-3.38,3.95-6.81,5.55-10.28l1.47,1.83
				c-1.87,4.6-3.97,8.69-6.29,12.25c-2.32,3.57-4.86,6.39-7.63,8.45C390.74,267.63,387.66,268.67,384.27,268.67z"/>
			<path class="st2" d="M413.03,269.51c-3.48,0-6.07-1.15-7.76-3.45c-1.7-2.3-2.54-5.09-2.54-8.38c0-2.16,0.38-4.88,1.14-8.17
				c0.76-3.29,1.76-6.74,3.01-10.35c1.25-3.61,2.7-7.02,4.35-10.21c1.65-3.19,3.41-5.8,5.28-7.82c1.87-2.02,3.7-3.03,5.48-3.03
				c0.8,0,1.49,0.26,2.07,0.77c0.58,0.52,0.87,1.29,0.87,2.32c0,1.13-0.69,2.96-2.07,5.49c-1.38,2.54-3.01,5.45-4.88,8.73
				c-1.87,3.29-3.5,6.74-4.88,10.35c-1.38,3.62-2.07,7.07-2.07,10.35c0,3.38,0.54,5.63,1.61,6.76c1.07,1.13,2.72,1.69,4.95,1.69
				c3.03,0,6.26-1.6,9.7-4.79c3.43-3.19,7.07-8.78,10.9-16.76l1.2,1.41c-2.59,8.08-6.31,14.28-11.17,18.59
				C423.35,267.35,418.29,269.51,413.03,269.51z M429.08,205c-1.43,0-2.7-0.37-3.81-1.13c-1.12-0.75-1.67-1.92-1.67-3.52
				c0-1.97,1.09-3.68,3.28-5.14c2.18-1.45,4.35-2.18,6.49-2.18c1.34,0,2.41,0.33,3.21,0.99c0.8,0.66,1.2,1.79,1.2,3.38
				c0,1.78-0.92,3.5-2.74,5.14C433.21,204.17,431.22,205,429.08,205z"/>
			<path class="st2" d="M498.38,278.1c-4.64,0-8.85-1.39-12.64-4.16c-3.79-2.77-6.8-6.76-9.03-11.97
				c-2.23-5.21-3.34-11.48-3.34-18.81c0-7.23,1.07-14.56,3.21-21.97c2.14-7.42,5.06-14.51,8.76-21.27
				c3.7-6.76,7.91-12.79,12.64-18.1c4.73-5.3,9.7-9.51,14.92-12.61c5.22-3.1,10.37-4.65,15.45-4.65c3.39,0,6.11,0.75,8.16,2.25
				c2.05,1.5,3.52,3.45,4.41,5.85c0.89,2.4,1.34,5,1.34,7.82c0,3.29-0.54,6.5-1.61,9.65c-1.07,3.15-2.5,5.75-4.28,7.82
				c-1.79,2.07-3.75,3.1-5.89,3.1c-0.71,0-1.45-0.23-2.21-0.7c-0.76-0.47-1.4-1.31-1.94-2.54c1.25-0.94,2.7-2.63,4.35-5.07
				c1.65-2.44,3.08-5.16,4.28-8.17c1.2-3,1.81-5.77,1.81-8.31c0-2.16-0.6-3.94-1.81-5.35c-1.2-1.41-3.28-2.11-6.22-2.11
				c-3.84,0-7.83,1.64-11.97,4.93c-4.15,3.29-8.16,7.68-12.04,13.17c-3.88,5.49-7.38,11.62-10.5,18.38
				c-3.12,6.76-5.6,13.66-7.42,20.71c-1.83,7.04-2.74,13.71-2.74,20c0,8.55,1.69,15.24,5.08,20.07c3.39,4.84,7.67,7.25,12.84,7.25
				c3.48,0,6.78-1.34,9.9-4.01c3.12-2.68,5.89-6.15,8.29-10.42c2.41-4.27,4.35-8.9,5.82-13.88c1.47-4.98,2.38-9.77,2.74-14.37
				c-3.3-0.75-5.98-1.24-8.03-1.48c-2.05-0.23-3.97-0.35-5.75-0.35c-1.16,0-2.39,0.02-3.68,0.07c-1.29,0.05-2.79,0.07-4.48,0.07
				c0.62-2.72,1.72-4.62,3.28-5.71c1.56-1.08,3.5-1.62,5.82-1.62c2.5,0,5.1,0.45,7.83,1.34c2.72,0.89,5.37,1.86,7.96,2.89
				c2.59,1.03,4.86,1.83,6.82,2.4l-0.94,4.51c-1.69,4.7-3.08,8.8-4.15,12.33c-1.07,3.52-1.9,6.62-2.47,9.3
				c-0.58,2.68-0.98,5.05-1.2,7.11c-0.22,2.07-0.33,3.94-0.33,5.63c0,1.88,0.07,3.71,0.2,5.49c0.13,1.78,0.24,3.61,0.33,5.49
				c-1.43-0.66-2.7-1.43-3.81-2.32c-1.12-0.89-1.96-2-2.54-3.31c-0.58-1.32-0.87-2.82-0.87-4.51c0-1.03,0.07-2.07,0.2-3.1
				s0.38-2.16,0.74-3.38c-3.21,4.69-6.91,8.64-11.1,11.83C508.36,276.51,503.64,278.1,498.38,278.1z"/>
			<path class="st2" d="M558.97,272.05c-5.44,0-9.52-1.57-12.24-4.72c-2.72-3.15-4.08-7.02-4.08-11.62c0-4.23,1-8.69,3.01-13.38
				c2.01-4.69,4.68-9.11,8.03-13.24c3.34-4.13,7.02-7.49,11.04-10.07c4.01-2.58,7.98-3.87,11.91-3.87c2.05,0,3.95,0.56,5.69,1.69
				c1.74,1.13,2.61,3.43,2.61,6.9c0,3.57-1,6.93-3.01,10.07c-2.01,3.15-4.64,5.94-7.89,8.38c-3.26,2.44-6.82,4.44-10.7,5.99
				c-3.88,1.55-7.74,2.51-11.57,2.89c-0.18,0.94-0.31,1.83-0.4,2.68c-0.09,0.85-0.13,1.64-0.13,2.4c0,1.41,0.15,2.82,0.47,4.23
				c0.31,1.41,0.87,2.7,1.67,3.87c0.8,1.18,1.89,2.09,3.28,2.75c1.38,0.66,3.1,0.99,5.15,0.99c3.83,0,7.63-1.15,11.37-3.45
				c3.75-2.3,7.22-5.33,10.43-9.09c3.21-3.75,5.93-7.89,8.16-12.4l1.61,1.27c-2.41,5.63-5.46,10.52-9.16,14.65
				c-3.7,4.13-7.71,7.35-12.04,9.65C567.82,270.89,563.43,272.05,558.97,272.05z M552.42,248.38c2.41-0.85,5.13-2.09,8.16-3.73
				c3.03-1.64,5.95-3.59,8.76-5.85s5.13-4.74,6.96-7.47c1.83-2.72,2.74-5.59,2.74-8.59c0-1.03-0.18-1.83-0.53-2.39
				c-0.36-0.56-1.12-0.85-2.27-0.85c-2.14,0-4.41,0.87-6.82,2.61c-2.41,1.74-4.73,4.01-6.96,6.83c-2.23,2.82-4.24,5.92-6.02,9.3
				C554.65,241.62,553.31,245,552.42,248.38z"/>
			<path class="st2" d="M632.28,268.67c-3.12,0-5.46-0.85-7.02-2.54s-2.34-3.85-2.34-6.48c0-1.97,0.33-4.04,1-6.2
				c0.67-2.16,1.31-4.39,1.94-6.69c0.62-2.3,0.94-4.53,0.94-6.69c0-2.63-0.51-4.44-1.54-5.42c-1.03-0.99-2.3-1.48-3.81-1.48
				c-2.77,0-5.57,1.2-8.43,3.59c-2.85,2.39-5.62,5.45-8.29,9.16c-2.68,3.71-5.17,7.54-7.49,11.48c-2.32,3.94-4.37,7.47-6.15,10.56
				c-1.43,0-2.79-0.26-4.08-0.77c-1.29-0.52-2.3-1.29-3.01-2.32c0-0.47,0.47-1.92,1.4-4.37c0.94-2.44,2.03-5.45,3.28-9.02
				c1.25-3.57,2.36-7.23,3.34-10.99c0.98-3.75,1.47-7.18,1.47-10.28c0.54-0.66,1.38-1.31,2.54-1.97c1.16-0.66,2.36-0.99,3.61-0.99
				c2.41,0,3.61,1.22,3.61,3.66c0,1.5-0.4,4.01-1.2,7.54s-1.83,7.21-3.08,11.06c2.41-3.85,5.1-7.68,8.09-11.48
				c2.99-3.8,6.17-6.97,9.56-9.51c3.39-2.54,6.78-3.8,10.17-3.8c3.48,0,6,1.32,7.56,3.94c1.56,2.63,2.34,5.54,2.34,8.73
				c0,2.91-0.45,5.61-1.34,8.1c-0.89,2.49-1.8,4.88-2.74,7.18c-0.94,2.3-1.4,4.63-1.4,6.97c0,1.97,0.38,3.36,1.14,4.16
				c0.76,0.8,1.72,1.2,2.88,1.2c2.23,0,4.46-1.1,6.69-3.31c2.23-2.21,4.39-5,6.49-8.38c2.1-3.38,3.95-6.81,5.55-10.28l1.47,1.83
				c-1.87,4.6-3.97,8.69-6.29,12.25c-2.32,3.57-4.86,6.39-7.63,8.45C638.75,267.63,635.67,268.67,632.28,268.67z"/>
			<path class="st2" d="M661.04,269.51c-3.48,0-6.07-1.15-7.76-3.45c-1.7-2.3-2.54-5.09-2.54-8.38c0-2.16,0.38-4.88,1.14-8.17
				c0.76-3.29,1.76-6.74,3.01-10.35c1.25-3.61,2.7-7.02,4.35-10.21c1.65-3.19,3.41-5.8,5.28-7.82c1.87-2.02,3.7-3.03,5.49-3.03
				c0.8,0,1.49,0.26,2.07,0.77c0.58,0.52,0.87,1.29,0.87,2.32c0,1.13-0.69,2.96-2.07,5.49c-1.38,2.54-3.01,5.45-4.88,8.73
				c-1.87,3.29-3.5,6.74-4.88,10.35c-1.38,3.62-2.07,7.07-2.07,10.35c0,3.38,0.54,5.63,1.61,6.76s2.72,1.69,4.95,1.69
				c3.03,0,6.26-1.6,9.7-4.79c3.43-3.19,7.07-8.78,10.9-16.76l1.2,1.41c-2.59,8.08-6.31,14.28-11.17,18.59
				C671.36,267.35,666.3,269.51,661.04,269.51z M677.09,205c-1.43,0-2.7-0.37-3.81-1.13c-1.12-0.75-1.67-1.92-1.67-3.52
				c0-1.97,1.09-3.68,3.28-5.14c2.18-1.45,4.35-2.18,6.49-2.18c1.34,0,2.41,0.33,3.21,0.99c0.8,0.66,1.2,1.79,1.2,3.38
				c0,1.78-0.92,3.5-2.74,5.14C681.22,204.17,679.23,205,677.09,205z"/>
			<path class="st2" d="M698.1,272.05c-5.44,0-9.52-1.57-12.24-4.72c-2.72-3.15-4.08-7.02-4.08-11.62c0-4.23,1-8.69,3.01-13.38
				c2.01-4.69,4.68-9.11,8.03-13.24c3.34-4.13,7.02-7.49,11.04-10.07c4.01-2.58,7.98-3.87,11.91-3.87c2.05,0,3.95,0.56,5.69,1.69
				c1.74,1.13,2.61,3.43,2.61,6.9c0,3.57-1,6.93-3.01,10.07c-2.01,3.15-4.64,5.94-7.89,8.38c-3.26,2.44-6.82,4.44-10.7,5.99
				c-3.88,1.55-7.74,2.51-11.57,2.89c-0.18,0.94-0.31,1.83-0.4,2.68c-0.09,0.85-0.13,1.64-0.13,2.4c0,1.41,0.16,2.82,0.47,4.23
				c0.31,1.41,0.87,2.7,1.67,3.87c0.8,1.18,1.89,2.09,3.28,2.75c1.38,0.66,3.1,0.99,5.15,0.99c3.83,0,7.63-1.15,11.37-3.45
				c3.75-2.3,7.22-5.33,10.43-9.09c3.21-3.75,5.93-7.89,8.16-12.4l1.61,1.27c-2.41,5.63-5.46,10.52-9.16,14.65
				c-3.7,4.13-7.72,7.35-12.04,9.65C706.95,270.89,702.55,272.05,698.1,272.05z M691.54,248.38c2.41-0.85,5.13-2.09,8.16-3.73
				c3.03-1.64,5.95-3.59,8.76-5.85c2.81-2.25,5.13-4.74,6.96-7.47c1.83-2.72,2.74-5.59,2.74-8.59c0-1.03-0.18-1.83-0.54-2.39
				c-0.36-0.56-1.12-0.85-2.27-0.85c-2.14,0-4.41,0.87-6.82,2.61c-2.41,1.74-4.73,4.01-6.96,6.83c-2.23,2.82-4.24,5.92-6.02,9.3
				C693.77,241.62,692.43,245,691.54,248.38z"/>
		</g>
	</g>
	<rect x="202.42" y="291.96" class="st11" width="527.12" height="42.5"/>
	<text transform="matrix(1 0 0 1 202.422 333.0258)" class="st12 st13 st14">Erziehe die Zukunft </text>
</g>
<g id="Ebene_2" class="st0">
	<g class="st1">
		<g>
			<path class="st2" d="M26.34,208.54c0.41-2.67-2.46-5.93-5.43-7.43c-2.14-1.08-4.08-1.13-6.83-1.2c-2.39-0.06-3.64,0.29-4.25,0.49
				c-1.58,0.52-2.73,1.33-3.44,1.92c0.82,0.04,2.08,0.16,3.56,0.56c0.7,0.19,2.79,0.76,2.75,1.32c-0.02,0.24-0.43,0.4-1.32,0.66
				c-1.02,0.3-2.41,0.65-4.13,0.93c0.45-0.1,1.52-0.26,2.7,0.22c0.67,0.27,1.14,0.65,1.43,0.94c-0.22,0.17-0.46,0.33-0.72,0.5
				c-1.2,0.77-2.39,1.24-3.43,1.54c0.63,0.05,1.51,0.14,2.55,0.27c0.85,0.1,1.7,0.22,2.54,0.38c0.92,0.17,2.68,0.63,4.86,1.48
				c4.67,1.84,6.27,3.69,7.36,2.95c0.16-0.11,0.25-0.24,1.31-3.86C26.17,209.13,26.33,208.59,26.34,208.54z"/>
			<g>
				<path class="st2" d="M27.09,208.54c0.22-10.03-15.09-11.51-21.23-6.75c-0.56,0.44-0.04,1.24,0.53,1.28
					c0.25,0.02,4.71,0.42,4.72,1c0.01,0.37-3.65,0.93-4.06,1.01c-0.96,0.17-0.54,1.58,0.4,1.45c1.13,0.32,2.27,0.65,3.4,0.97
					c0.05-0.39,0.1-0.79,0.15-1.18c-1.28,0.88-2.45,1.46-3.96,1.96c-0.83,0.27-0.63,1.39,0.2,1.47c3.86,0.37,7.34,1.04,10.89,2.61
					c1.44,0.63,4.12,2.81,5.88,2.63c2.37-0.25,2.59-4.52,3.05-6.23c0.25-0.93-1.19-1.33-1.45-0.4c-0.28,1.03-0.63,3.97-1.39,4.68
					c-0.86,0.8-2.98-0.88-4.2-1.47c-4.13-2.01-8.25-2.88-12.78-3.31c0.07,0.49,0.13,0.98,0.2,1.47c1.56-0.51,2.96-1.17,4.32-2.11
					c0.36-0.25,0.55-0.85,0.15-1.18c-1.46-1.2-2.99-1.62-4.86-1.35c0.13,0.48,0.27,0.96,0.4,1.45c1.77-0.32,4.42-0.46,5.78-1.78
					c0.23-0.23,0.29-0.63,0.12-0.91c-1.2-1.96-4.96-2.1-6.96-2.25c0.18,0.43,0.35,0.85,0.53,1.28c5.15-3.99,18.86-2.91,18.67,5.69
					C25.56,209.51,27.06,209.51,27.09,208.54z"/>
			</g>
		</g>
		<g>
			<path class="st2" d="M145.99,102.48c-0.63,0.07-1.3,3.02-0.32,5.66c0.16,0.43,1.29,3.34,4.32,4.34c2.88,0.95,6.01-0.32,6-1
				c-0.02-0.73-3.67-0.05-6.5-2.5C146.53,106.42,146.72,102.4,145.99,102.48z"/>
			<g>
				<path class="st2" d="M145.8,102.16c-1.03,0.5-1.02,2.42-1,3.36c0.04,1.45,0.42,2.87,1.18,4.11c1.86,3.05,5.86,4.55,9.21,2.97
					c0.53-0.25,1.49-0.74,1.05-1.47c-0.46-0.76-2.88-0.69-3.62-0.92c-2.97-0.89-4.61-3.12-5.47-5.97c-0.17-0.56-0.29-1.98-1.06-2.12
					c-0.47-0.09-0.67,0.63-0.2,0.72c0.32,0.06,0.76,2.34,0.87,2.64c0.32,0.87,0.73,1.71,1.28,2.46c1.62,2.22,3.94,2.99,6.53,3.43
					c0.47,0.08,0.91-0.02,0.78,0.31c-0.12,0.31-1.38,0.55-1.64,0.6c-2.21,0.49-4.53-0.14-6.1-1.77c-0.65-0.67-1.18-1.5-1.53-2.37
					c-0.38-0.95-1.25-4.69,0.11-5.35C146.61,102.59,146.23,101.95,145.8,102.16z"/>
			</g>
		</g>
		<ellipse class="st3" cx="142.49" cy="61.98" rx="6.5" ry="10.5"/>
		<ellipse class="st3" cx="181.49" cy="53.48" rx="5.5" ry="10"/>
		<path class="st4" d="M83.71,244.99c-0.27-1.22,0.33-2.74,1.07-3.72c0.36-0.46,1.17-1.36,3.06-1.98c4.15-1.36,5.76,1.16,8.92,0.08
			c2.96-1.01,2.48-3.55,6.11-4.95c0.82-0.32,3.38-1.3,5.7-0.08c2.92,1.54,3.19,5.37,3.22,5.94c0.22,4.19-3.02,7.05-3.47,7.43
			c-3.41,2.9-7.74,2.45-12.96,1.9C92.34,249.3,84.49,248.47,83.71,244.99z"/>
		<path class="st4" d="M51.43,236.32c1.08,1.81,2.64,2.97,2.64,2.97c0.23,0.17,1.53,1.14,2.89,1.49c3.44,0.87,7.24-2.2,9.08-4.54
			c2.72-3.45,2.79-7.33,2.72-8.83c-0.06-1.3-0.28-6.13-4.21-9.25c-2.61-2.07-7.19-3.65-10.32-1.65c-2.06,1.32-2.53,3.69-3.47,8.42
			C50.15,228.03,49.28,232.74,51.43,236.32z"/>
		<path class="st4" d="M74.46,188.6c-0.52,1.45,0.67,3.13,1.9,4.87c1,1.41,2.38,3.36,5.04,4.13c2.89,0.84,5.33-0.28,5.94-0.58
			c3.01-1.44,4.17-4.11,4.46-4.87c0.65-1.69,1.49-5.4-0.33-7.02c-0.86-0.76-1.88-0.67-7.93,0.5
			C76.14,187.05,74.88,187.45,74.46,188.6z"/>
		<path class="st4" d="M119.79,197.35c-1.7,0.22-2.95,1.83-5.45,5.04c-2.36,3.03-3.78,4.91-4.13,7.76
			c-0.16,1.29-0.41,3.39,0.83,5.12c1.77,2.48,5.65,2.81,8.17,2.15c5.82-1.52,9.97-9.71,7.51-15.19
			C125.56,199.62,122.61,196.98,119.79,197.35z"/>
		<path class="st4" d="M153.89,180.67c-2.09-0.98-5.67,2.69-6.03,3.06c-2.68,2.76-3.28,6.03-3.55,7.6
			c-0.27,1.61-1.28,8.96,3.72,13.95c1.41,1.41,4.87,4.2,6.77,3.14c1.9-1.06,0.42-4.97,0.17-14.45
			C154.73,185.34,155.76,181.55,153.89,180.67z"/>
		<path class="st4" d="M126.32,152.02c-0.49,0.04-1.51,0.15-2.48,0.83c-2.36,1.64-2.75,5.52-1.9,8.17c1.66,5.15,8.23,6.37,9.08,6.52
			c1.15,0.21,7.01,1.14,11.06-2.89c2.17-2.16,3.58-5.5,3.06-8.59c-0.14-0.8-0.34-2.02-1.32-2.81c-1.54-1.24-4.01-0.61-6.11-0.08
			c-2.61,0.66-2.22,1.15-3.55,1.24C130.93,154.63,129.73,151.71,126.32,152.02z"/>
		<path class="st4" d="M118.39,112.64c1.24-0.51,5.3,3.86,6.28,9.17c1.53,8.35-5.06,16.52-6.44,16.02
			c-0.93-0.33,0.92-4.44,0.74-13.38C118.81,116.85,117.33,113.07,118.39,112.64z"/>
		<path class="st4" d="M149.46,23.79c-0.66-0.01-1.76-0.03-2.81,0.58c-2.18,1.26-3.01,4.24-2.31,6.61c0.04,0.15,1.01,3.41,3.39,3.72
			c1.82,0.24,3.24-1.42,4.38-2.72c0.77-0.89,1.85-2.13,1.9-3.96c0.01-0.46,0.06-1.95-0.99-3.06
			C151.94,23.82,150.39,23.8,149.46,23.79z"/>
		<path class="st4" d="M155.55,230.46c-1.03-0.54-3.59,1.07-4.18,3.52c-0.69,2.84,1.57,5.56,2.75,5.39
			C155.98,239.11,157.28,231.37,155.55,230.46z"/>
		<path class="st4" d="M75.73,255.89c-1.5-0.88-4.22,0.21-5.28,1.98c-2.1,3.49,2.56,9.21,4.51,8.81
			C77.15,266.23,78.53,257.55,75.73,255.89z"/>
	</g>
	<path class="st5" d="M39.95,200.35"/>
	<path class="st5" d="M37.67,193.16"/>
	<path class="st5" d="M29,73.86"/>
	<ellipse class="st6" cx="140.49" cy="58.48" rx="1.5" ry="2"/>
	<ellipse class="st6" cx="399.85" cy="61.64" rx="1" ry="1.5"/>
	<path class="st5" d="M397.35,100.64"/>
	<path class="st5" d="M396.35,12.64"/>
	<path class="st5" d="M396.35,13.64"/>
	<path class="st5" d="M396.35,4.64"/>
	<path class="st5" d="M129.49-5.02"/>
	<path class="st5" d="M130.49,10.98"/>
	<path class="st5" d="M153.49-0.02"/>
	<path class="st5" d="M118.49,24.98"/>
	<path class="st5" d="M121.49,23.98"/>
	<path class="st5" d="M118.49,36.98"/>
	<path class="st5" d="M120.49,41.98"/>
	<path class="st5" d="M115.49,30.98"/>
	<path class="st5" d="M113.49,40.98"/>
	<path class="st5" d="M107.49,38.98"/>
	<path class="st5" d="M106.49,34.98"/>
	<path class="st5" d="M118.49,37.98"/>
	<path class="st5" d="M114.45,49.55"/>
	<path class="st5" d="M118.72,79.69"/>
	<path class="st7" d="M163.58,75.45"/>
	<g class="st1">
		<g>
			<g>
				<path class="st2" d="M177.84,92.19c0.18-1.55,0.05-3.1-0.33-4.62c-0.47-1.87-3.37-1.08-2.89,0.8c0.32,1.27,0.37,2.52,0.22,3.82
					c-0.09,0.81,0.75,1.5,1.5,1.5C177.23,93.69,177.75,93,177.84,92.19L177.84,92.19z"/>
			</g>
		</g>
		<g>
			<g>
				<g>
					<path class="st2" d="M43.99,44c3.46-1.45,3.34-7.98,4.85-10.94c2.64-5.16,7.42-8.97,12.67-11.26
						c8.83-3.85,20.5-2.79,26.22,5.74c4.4,6.55,4.16,14.46,1.45,21.51c-1.27,3.3-3.02,6.39-5.15,9.2c-1.01,1.32-2.08,2.61-3.26,3.79
						c-0.68,0.68-0.67,0.78,0.1-0.13c-0.87,1.02-1.72,2.04-2.64,3.02c-6.41,6.91-13.79,12.95-21.37,18.51
						c-3,2.2-6.05,4.31-9.15,6.36c-1.52,1.01-3.12,2.35-4.79,3.09c-1.97,0.88-0.99,1.07-3.58,0.6c-1.94-0.35-2.67-1.05-4.11-2.23
						c-5.44-4.45-10.68-9.17-15.57-14.23C8.52,65.45-0.54,52.67-1.85,36.3c-1.39-17.42,17.6-22.57,29.84-13.82
						c3.84,2.74,7,6.23,9.19,10.41c1.25,2.39,2.56,10.53,6.02,11.11c1.89,0.32,2.7-2.57,0.8-2.89c-1.07-0.18-2.45-5.84-2.86-6.81
						c-1.19-2.77-2.62-5.42-4.51-7.78c-2.61-3.26-5.94-6.12-9.55-8.2c-9.13-5.27-22.05-4.46-28.65,4.58
						c-6.82,9.33-2.1,23.67,2.02,33.18c2.69,6.22,7.18,11.84,11.54,16.94c4.81,5.63,10.11,10.83,15.67,15.72
						c4.06,3.56,9.19,10.51,15.11,7.78c7.35-3.39,14.39-9.42,20.76-14.38c4.65-3.62,9.16-7.44,13.38-11.56
						c10.01-9.77,20.29-22.74,16.4-37.72c-3.4-13.12-16.79-18.57-29.22-15.16c-3.87,1.06-7.57,3.02-10.72,5.47
						c-2.92,2.26-5.41,5.09-7.12,8.38c-0.81,1.57-1.43,3.24-1.93,4.93c-0.11,0.36-0.81,4.5-1.13,4.64
						C41.44,41.84,42.21,44.74,43.99,44z"/>
				</g>
			</g>
			<g>
				<g>
					<path class="st2" d="M24.67,72.78c1.93,4.7,5.28,8.54,9.8,10.91c1.71,0.9,3.23-1.69,1.51-2.59c-3.78-1.99-6.79-5.15-8.42-9.12
						C26.84,70.22,23.94,70.99,24.67,72.78L24.67,72.78z"/>
				</g>
			</g>
			<g>
				<g>
					<path class="st2" d="M38.7,97.11c0.55,12.15-1.3,23.48-3.38,35.37c-2.05,11.71-1.91,23.54-1.98,35.38
						c-0.08,14.4-1.46,27.64,11,37.51c1.5,1.19,3.63-0.92,2.12-2.12c-5.51-4.37-9.12-9.82-9.77-16.77
						c-0.72-7.8-0.39-15.74-0.32-23.56c0.09-11.5,0.4-22.72,2.67-34.04c2.12-10.54,3.14-21,2.65-31.77
						C41.61,95.19,38.61,95.18,38.7,97.11L38.7,97.11z"/>
				</g>
			</g>
			<g>
				<g>
					<path class="st2" d="M38.17,196.92c-2.3,3.38-7.82-0.19-10.6-1.51c-0.89-0.42-3.82-1.4-4.23-2.42
						c-0.94-2.31,2.97-4.31,4.84-3.91c2.29,0.49,3.59,3.32,4.84,5.16c1.64,2.41,3.86,7.54,7.66,5.9c3.14-1.36,5.93-6.78,7.51-9.64
						c1.34-2.43,3.02-4.91,1.55-7.63c-1.19-2.19-4.16-3.9-6.63-4.12C34.29,177.97,40.6,192.53,38.17,196.92
						c-0.93,1.69,1.66,3.21,2.59,1.51c1.72-3.1,0.95-6.79,0.78-10.18c-0.12-2.33-0.69-7.74,3.27-5.87c3.79,1.79,1.9,4.63,0.45,7.21
						c-0.75,1.34-3.2,6.28-4.78,6.76c-3.04,0.92-5.29-4.38-6.71-6.31c-1.6-2.18-3.3-4.41-6.25-4.33c-4.43,0.12-10,5.83-5.96,9.69
						c2.64,2.53,7.19,3.92,10.49,5.22c3.62,1.42,6.43,1.18,8.72-2.19C41.85,196.83,39.25,195.33,38.17,196.92z"/>
				</g>
			</g>
			<g>
				<g>
					<path class="st2" d="M42.59,196.97c1.63-1.74,3.36-3.85,5.52-4.95c3.44-1.74,8.1-0.65,9.43,3.13c0.83,2.36,0.23,2.29-1.1,4.38
						c-1.09,1.71-2.06,3.48-2.97,5.28c0.91,0.12,1.83,0.24,2.74,0.36c-1.23-3.2-4.4-7.64-8.4-7.15c-1.4,0.17-2.34,1.02-3.21,2.05
						c-2.37,2.8-3.17,6.32-6.01,8.91c-2.15,1.96-5.62,4.44-8.65,4.37c-6.34-0.13,0.39-4.87,2.79-5.98
						C37.99,204.93,38.97,201.13,42.59,196.97c1.26-1.45-0.85-3.58-2.12-2.12c-1.93,2.21-3.03,4.95-4.89,7.14
						c-2.06,2.42-5.39,2.73-7.84,4.53c-2.57,1.89-5.92,6.89-2.07,9.29c3.68,2.3,9.68-0.69,12.66-2.79c2.07-1.46,3.92-3.25,5.39-5.32
						c0.95-1.33,1.6-3.94,2.76-4.98c3.38-3.04,5.82,0.6,6.84,3.26c0.42,1.1,2.11,1.61,2.74,0.36c2.75-5.44,8.34-10.1,2.37-15.37
						c-6.53-5.76-13.02-1.39-17.95,3.89C39.15,196.26,41.27,198.38,42.59,196.97z"/>
				</g>
			</g>
			<g>
				<g>
					<path class="st2" d="M70.31,242.89c15.44,9.22,37.69,13.05,53.09,1.73c1.54-1.13,0.04-3.74-1.51-2.59
						c-14.56,10.71-35.46,6.98-50.06-1.73C70.16,239.31,68.65,241.9,70.31,242.89L70.31,242.89z"/>
				</g>
			</g>
			<g>
				<g>
					<path class="st2" d="M56.99,273.47c6.09,3.27,13.52,5.83,19.25,0.66c1.44-1.3-0.69-3.41-2.12-2.12
						c-4.56,4.12-10.93,1.39-15.62-1.13C56.8,269.97,55.28,272.56,56.99,273.47L56.99,273.47z"/>
				</g>
			</g>
			<g>
				<g>
					<path class="st2" d="M75.23,276.47c4.47,1.99,9.74,1.92,13.1-2.06c1.24-1.47-0.87-3.6-2.12-2.12
						c-2.44,2.89-6.15,3.07-9.47,1.59C75,273.1,73.47,275.69,75.23,276.47L75.23,276.47z"/>
				</g>
			</g>
			<g>
				<g>
					<path class="st2" d="M74.75,284.53c5.41,1.28,12.05,1.4,14.03-4.91c1.06-3.39,0.81-7.28,1-10.77
						c0.33-6.03,1.04-12.02,2.18-17.95c0.36-1.89-2.53-2.69-2.89-0.8c-1.38,7.18-2.07,14.39-2.42,21.7
						c-0.12,2.44,0.15,5.89-1.18,8.09c-2.08,3.43-6.65,2.52-9.91,1.75C73.67,281.2,72.87,284.09,74.75,284.53L74.75,284.53z"/>
				</g>
			</g>
			<g>
				<g>
					<path class="st2" d="M140.2,240.37c-0.83,9.28-1.93,18.54-3.36,27.75c-0.29,1.87-0.59,3.73-0.91,5.6
						c-0.28,1.67-0.29,6.11-1.45,7.38c-2.59,2.81-9.44-0.2-12.44-1.11c0.37,0.48,0.73,0.96,1.1,1.45
						c-0.84-11.39-2.6-22.65-5.29-33.75c-0.45-1.88-3.35-1.08-2.89,0.8c2.63,10.84,4.36,21.83,5.18,32.95
						c0.05,0.68,0.43,1.24,1.1,1.45c3.53,1.07,7.96,2.88,11.69,2.25c4.38-0.74,4.74-4.06,5.4-7.82c2.16-12.24,3.75-24.56,4.86-36.94
						C143.37,238.45,140.37,238.46,140.2,240.37L140.2,240.37z"/>
				</g>
			</g>
			<g>
				<g>
					<path class="st2" d="M157.41,128.77c-3.09,7.05-3.14,14.23-3.52,21.78c-0.28,5.71-0.47,11.43-0.47,17.15
						c0,12.59,0.35,25.17,0.74,37.75c0.25,8.08,1.18,16.42,0.82,24.48c-0.22,4.93-0.98,9.9-1.55,14.8
						c-0.85,7.26-1.98,14.45-3.3,21.64c-0.33,1.8-0.64,3.6-1.03,5.38c-0.36,1.67-0.89,6.46-2.39,7.48
						c-1.82,1.25-6.57-0.51-8.62-0.99c-1.88-0.44-2.68,2.45-0.8,2.89c2.83,0.67,7.44,2.22,10.28,1.01
						c3.94-1.68,4.28-8.77,4.95-12.28c2.11-11.01,3.63-22.06,4.79-33.21c1.19-11.48,0.08-23.01-0.26-34.53
						c-0.32-10.64-0.58-21.29-0.63-31.94c-0.02-5.04,0.03-10.08,0.25-15.11c0.35-8.28-0.06-17.07,3.32-24.79
						C160.77,128.53,158.19,127,157.41,128.77L157.41,128.77z"/>
				</g>
			</g>
			<g>
				<g>
					<path class="st2" d="M120.14,272.86c5.04,4.13,12.18,4.59,17.56,0.79c1.56-1.11,0.07-3.71-1.51-2.59
						c-4.2,2.97-9.89,2.99-13.93-0.32C120.78,269.53,118.64,271.64,120.14,272.86L120.14,272.86z"/>
				</g>
			</g>
			<g>
				<g>
					<path class="st2" d="M136.78,272.53c4.26,3.65,10.19,3.66,14.54,0.16c1.51-1.21-0.63-3.32-2.12-2.12
						c-3.01,2.41-7.38,2.34-10.3-0.16C137.44,269.16,135.31,271.27,136.78,272.53L136.78,272.53z"/>
				</g>
			</g>
			<g>
				<g>
					<path class="st2" d="M115.32,50.21c-0.91,13.01-1.18,26.08-0.64,39.12c0.43,10.44,1.58,20.84,1.84,31.28
						c0.19,8.05,0.14,16.19-1.31,24.13c-0.86,4.73-2.05,9.39-3.5,13.97c-2.08,6.56-4.33,14.14-8.45,19.73
						c-4.19,5.7-11.87,4.11-18.08,4.91c-6.05,0.78-12.07,2.45-17.35,5.57c-10.07,5.95-14.92,16.59-17.3,27.65
						c-2.61,12.08-2.68,25.28,0.38,37.26c1.36,5.34,2.71,10.69,3.9,16.07c0.8,3.6,0.89,7.83,2.19,11.26
						c3.11,8.22,17.75,9.04,19.84-0.29c0.93-4.17,0.26-8.88,0.45-13.14c0.33-7.46,1.08-14.91,1.92-22.33c0.22-1.92-2.79-1.9-3,0
						c-1.18,10.42-1.87,20.74-2.06,31.21c-0.05,2.87,0.03,6.54-3.6,7.75c-3.4,1.13-9.2-0.96-10.62-4.15
						c-1.27-2.88-1.32-6.92-1.98-10c-2.52-11.66-6.15-22.76-6.22-34.81c-0.08-11.81,1.62-25.22,8.37-35.24
						c7.5-11.12,20.6-13.78,33.11-14.37c10.48-0.49,13.79-6.86,17.54-15.82c6.66-15.91,9.15-31.64,8.8-48.74
						c-0.22-10.41-1.36-20.77-1.82-31.17c-0.59-13.29-0.32-26.62,0.61-39.89C118.46,48.29,115.46,48.3,115.32,50.21L115.32,50.21z"
						/>
				</g>
			</g>
			<g>
				<g>
					<path class="st2" d="M121.49,23.48c-5.8-0.13-12.78-2.35-18.43-0.41c-5.65,1.94-7.66,7.77-7.64,13.34
						c0.02,5.32,4.03,7.4,8.27,9.51c4.15,2.07,8.45,3.87,12.75,5.59c1.79,0.72,2.57-2.19,0.8-2.89c-5.26-2.1-14.19-4.39-17.58-9.12
						c-1.87-2.61-1.38-6.36-0.04-9.29c1.64-3.58,5-4.94,8.81-4.84c4.36,0.12,8.67,1.01,13.05,1.11
						C123.42,26.52,123.42,23.52,121.49,23.48L121.49,23.48z"/>
				</g>
			</g>
			<g>
				<g>
					<path class="st2" d="M119.96,31.61c-4.28-2.34-11.83-4.46-14.6,1.16c-3.48,7.05,6.81,9.93,11.72,10.66
						c1.89,0.28,2.7-2.61,0.8-2.89c-2.7-0.4-12.64-2.31-9.61-6.85c2.14-3.2,7.63-0.88,10.17,0.52
						C120.14,35.13,121.66,32.54,119.96,31.61L119.96,31.61z"/>
				</g>
			</g>
			<g>
				<g>
					<path class="st2" d="M119.26,42.04c0.35-2.93,0.87-5.82,1.53-8.7c0.43-1.88-2.47-2.68-2.89-0.8c-0.71,3.14-1.25,6.3-1.63,9.5
						C116.03,43.95,119.03,43.93,119.26,42.04L119.26,42.04z"/>
				</g>
			</g>
			<g>
				<g>
					<path class="st2" d="M122.93,25.38c2.36-5.89,6-11.01,10.61-15.34c1.41-1.32-0.71-3.44-2.12-2.12
						c-5.01,4.7-8.83,10.28-11.39,16.66C119.32,26.37,122.22,27.15,122.93,25.38L122.93,25.38z"/>
				</g>
			</g>
			<g>
				<g>
					<path class="st2" d="M137.48,16.23c-1.85-6.22-3.7-12.44-5.54-18.65c-0.55-1.85-3.44-1.06-2.89,0.8
						c1.85,6.22,3.7,12.44,5.54,18.65C135.13,18.88,138.03,18.09,137.48,16.23L137.48,16.23z"/>
				</g>
			</g>
			<g>
				<g>
					<path class="st2" d="M145.7,9.74c-3.68-4.93-6.99-10.1-9.92-15.51c-0.92-1.7-3.51-0.19-2.59,1.51
						c2.93,5.41,6.23,10.58,9.92,15.51C144.25,12.78,146.86,11.28,145.7,9.74L145.7,9.74z"/>
				</g>
			</g>
			<g>
				<g>
					<path class="st2" d="M122.23-9.36c0.09,4.53,2.61,8.91,7.8,8.11c4.2-0.64,6.3-4.29,6.57-8.23c0.31-4.46-2.18-8.86-7.11-8.86
						C124.4-18.34,122.17-13.85,122.23-9.36c0.03,1.93,3.03,1.93,3,0c-0.04-2.78,0.84-5.99,4.27-5.98c3.29,0.01,4.33,3.11,4.11,5.86
						c-0.17,2.06-0.93,4.19-3.01,5.02c-3.73,1.47-5.3-1.86-5.36-4.9C125.19-11.29,122.19-11.29,122.23-9.36z"/>
				</g>
			</g>
			<g>
				<g>
					<path class="st2" d="M141.65,4.66c5.85-4.29,16.43-4.46,23.08-2.07c1.82,0.65,2.6-2.24,0.8-2.89
						c-7.36-2.65-18.9-2.39-25.39,2.37C138.6,3.2,140.09,5.8,141.65,4.66L141.65,4.66z"/>
				</g>
			</g>
			<g>
				<g>
					<path class="st2" d="M168.04-12.42c-2.1,6.45-3.42,13.05-4,19.81c-0.17,1.92,2.84,1.91,3,0c0.56-6.5,1.87-12.82,3.89-19.01
						C171.53-13.46,168.64-14.25,168.04-12.42L168.04-12.42z"/>
				</g>
			</g>
			<g>
				<g>
					<path class="st2" d="M173.99-11.02c0.46,6.45,0.29,12.89-0.58,19.31c-0.26,1.89,2.63,2.7,2.89,0.8
						c0.91-6.69,1.17-13.36,0.69-20.1C176.85-12.94,173.85-12.95,173.99-11.02L173.99-11.02z"/>
				</g>
			</g>
			<g>
				<g>
					<path class="st2" d="M170.55-13.08c-1.85-1.5-2.43-4.08-1.93-6.38c0.59-2.71,3.15-5.46,5.79-3.02c1.76,1.63,2.06,4.2,1.71,6.45
						c-0.48,3.02-3.2,4.16-5.86,2.71c-1.7-0.92-3.21,1.67-1.51,2.59c3.37,1.82,8.39,1.21,9.89-2.82c1.42-3.81,0.62-8.76-2.53-11.46
						c-3.24-2.78-7.61-1.25-9.48,2.3c-1.94,3.67-1.53,9.03,1.82,11.75C169.91-9.75,172.05-11.86,170.55-13.08z"/>
				</g>
			</g>
			<g>
				<g>
					<path class="st2" d="M127.34,101.31c6.55-8.68,15.67-15.84,25.61-20.2c17-7.46,36.3-5.33,51.94,4.34
						c1.65,1.02,3.16-1.58,1.51-2.59c-16.04-9.92-35.84-12.26-53.41-5c-11.07,4.57-21.02,12.38-28.24,21.94
						C123.58,101.34,126.19,102.83,127.34,101.31L127.34,101.31z"/>
				</g>
			</g>
			<g>
				<g>
					<path class="st2" d="M114.69,73.21c4.36,15.9,8.87,34.95,21.75,46.34c10.56,9.34,25.38,12.98,38.89,8.46
						c11.61-3.89,22.51-13.26,27.64-24.43c7.01-15.27,5.77-32.87,2.2-48.85c-4.43-19.8-11.08-38.51-27.93-51.04
						c-1.55-1.15-3.05,1.45-1.51,2.59c14.33,10.67,20.41,25.83,24.87,42.52c4.02,15.02,6.64,31.6,2.12,46.81
						c-7.88,26.51-40.55,41.57-63.38,22.49c-13.08-10.93-17.46-29.98-21.76-45.69C117.07,70.55,114.18,71.34,114.69,73.21
						L114.69,73.21z"/>
				</g>
			</g>
			<g>
				<g>
					<path class="st2" d="M161.81,90.6c0.21,1.12,0.25,2.24,0.18,3.38c-0.12,1.93,2.88,1.92,3,0c0.09-1.4-0.03-2.79-0.29-4.17
						c-0.15-0.8-1.11-1.25-1.85-1.05C162.02,88.99,161.66,89.8,161.81,90.6L161.81,90.6z"/>
				</g>
			</g>
			<g>
				<g>
					<path class="st2" d="M180.65,8.07c5.45-1.18,14.21,0.52,19.01,3.48c8.57,5.28-1.06,11.33-6.23,13.59
						c-1.76,0.77-0.24,3.36,1.51,2.59c5.18-2.27,14.94-8.23,10.44-15.09c-4.5-6.84-18.16-9.07-25.53-7.46
						C177.96,5.59,178.76,8.48,180.65,8.07L180.65,8.07z"/>
				</g>
			</g>
			<g>
				<g>
					<path class="st2" d="M187.47,16.86c1.16-0.03,2.32-0.05,3.48-0.04c1.06,0.01,2.55-0.15,3.58,0.17
						c1.03,0.32,1.51,1.69,0.96,2.59c-0.5,0.82-2.62,1.61-3.42,2.07c-1.68,0.95-0.17,3.55,1.51,2.59c1.55-0.88,4.06-1.71,4.81-3.46
						c0.57-1.33,0.34-3.27-0.3-4.54c-1.73-3.43-7.49-2.47-10.62-2.38C185.54,13.92,185.54,16.92,187.47,16.86L187.47,16.86z"/>
				</g>
			</g>
			<ellipse class="st8" cx="144.49" cy="61.98" rx="9" ry="12.5"/>
			<ellipse class="st8" cx="184.49" cy="52.98" rx="8.5" ry="12.5"/>
			<path class="st9" d="M175.49,89.98"/>
			<path class="st9" d="M69.23,276.37"/>
		</g>
	</g>
	<path class="st10" d="M152.49,25.61"/>
	<g class="st1">
		<g>
			<path class="st2" d="M190.64,287.17c0.53-1.32,2.01-4.77,4.41-10.35c2.41-5.59,5.55-12.86,9.43-21.83
				c3.88-8.97,8.25-19.16,13.11-30.57c4.86-11.41,10.01-23.5,15.45-36.27c0.27-0.66,0.56-1.53,0.87-2.61
				c0.31-1.08,0.47-2.14,0.47-3.17c0-1.03-0.29-1.9-0.87-2.61c-0.58-0.7-1.81-1.06-3.68-1.06c-3.75,0-6.85,1.34-9.3,4.01
				c-2.45,2.68-4.28,5.99-5.48,9.93c-1.2,3.94-1.81,7.84-1.81,11.69c0,0.94,0.02,1.74,0.07,2.39c0.04,0.66,0.11,1.32,0.2,1.97
				c-1.7,0-3.06-0.63-4.08-1.9c-1.03-1.27-1.79-2.82-2.27-4.65c-0.49-1.83-0.74-3.5-0.74-5c0-3.1,0.8-6.06,2.41-8.87
				s3.68-5.35,6.22-7.61c2.54-2.25,5.35-4.01,8.43-5.28c3.08-1.27,6.09-1.9,9.03-1.9s5.42,0.87,7.42,2.61
				c2.01,1.74,3.52,4.86,4.55,9.37c1.02,4.51,1.54,11.04,1.54,19.58c0,5.82-0.2,12.02-0.6,18.59c-0.4,6.57-0.83,13.05-1.27,19.44
				c-0.45,6.39-0.76,12.21-0.94,17.47c1.43-5.73,3.46-11.83,6.09-18.31c2.63-6.48,5.53-12.94,8.7-19.37
				c3.16-6.43,6.31-12.47,9.43-18.1c3.12-5.63,5.93-10.52,8.43-14.65c2.5-4.13,4.32-7.14,5.48-9.02c1.25-1.88,2.32-3.31,3.21-4.3
				c0.89-0.99,2.05-1.48,3.48-1.48c1.25,0,2.68,0.33,4.28,0.99c-0.63,1.69-1.49,4.2-2.61,7.54c-1.12,3.33-2.25,7.4-3.41,12.18
				c-1.43,5.73-2.86,12.23-4.28,19.51c-1.43,7.28-2.74,14.67-3.95,22.19c-1.2,7.51-2.16,14.58-2.88,21.2
				c-0.71,6.62-1.07,12.18-1.07,16.69c0,2.06,0.09,3.66,0.27,4.79c0.18,1.13,0.42,2.13,0.74,3.03c0.31,0.89,0.65,2.14,1,3.73
				c-3.03,0-5.35-0.52-6.96-1.55c-1.61-1.03-2.68-2.7-3.21-5c-0.54-2.3-0.8-5.38-0.8-9.23c0-11.17,1.36-23.17,4.08-35.99
				c2.72-12.82,5.82-26.13,9.3-39.93c-2.59,3.48-5.28,7.87-8.09,13.17c-2.81,5.31-5.62,11.04-8.43,17.19
				c-2.81,6.15-5.48,12.3-8.03,18.45c-2.54,6.15-4.79,11.86-6.76,17.11c-1.96,5.26-3.48,9.63-4.55,13.1
				c-0.54,0.19-0.89,0.33-1.07,0.42c-0.18,0.09-0.49,0.14-0.94,0.14c-2.41,0-3.99-1.5-4.75-4.51c-0.76-3-1.14-7.23-1.14-12.68
				c0-3.85,0.11-8.43,0.33-13.73c0.22-5.3,0.47-10.78,0.74-16.41c0.27-5.63,0.51-11.06,0.74-16.27c0.22-5.21,0.33-9.7,0.33-13.45
				c0-1.88-0.02-3.43-0.07-4.65c-0.05-1.22-0.11-2.3-0.2-3.24c-7.14,17.47-13.11,32.38-17.93,44.72
				c-4.82,12.35-8.85,22.38-12.11,30.07c-3.26,7.7-6.13,13.33-8.63,16.9C195.5,285.38,193.05,287.17,190.64,287.17z"/>
			<path class="st2" d="M304.61,278.57c-3.48,0-6.07-1.15-7.76-3.45c-1.7-2.3-2.54-5.09-2.54-8.38c0-2.16,0.38-4.88,1.14-8.17
				c0.76-3.29,1.76-6.74,3.01-10.35c1.25-3.61,2.7-7.02,4.35-10.21c1.65-3.19,3.41-5.8,5.28-7.82c1.87-2.02,3.7-3.03,5.48-3.03
				c0.8,0,1.49,0.26,2.07,0.77c0.58,0.52,0.87,1.29,0.87,2.32c0,1.13-0.69,2.96-2.07,5.49c-1.38,2.54-3.01,5.45-4.88,8.73
				c-1.87,3.29-3.5,6.74-4.88,10.35c-1.38,3.62-2.07,7.07-2.07,10.35c0,3.38,0.54,5.63,1.61,6.76c1.07,1.13,2.72,1.69,4.95,1.69
				c3.03,0,6.26-1.6,9.7-4.79c3.43-3.19,7.07-8.78,10.9-16.76l1.2,1.41c-2.59,8.08-6.31,14.28-11.17,18.59
				C314.93,276.41,309.87,278.57,304.61,278.57z M320.66,214.06c-1.43,0-2.7-0.37-3.81-1.13c-1.12-0.75-1.67-1.92-1.67-3.52
				c0-1.97,1.09-3.68,3.28-5.14c2.18-1.45,4.35-2.18,6.49-2.18c1.34,0,2.41,0.33,3.21,0.99c0.8,0.66,1.2,1.79,1.2,3.38
				c0,1.78-0.92,3.5-2.74,5.14C324.79,213.24,322.8,214.06,320.66,214.06z"/>
			<path class="st2" d="M370.43,277.73c-3.12,0-5.46-0.85-7.02-2.54c-1.56-1.69-2.34-3.85-2.34-6.48c0-1.97,0.33-4.04,1-6.2
				c0.67-2.16,1.31-4.39,1.94-6.69c0.62-2.3,0.94-4.53,0.94-6.69c0-2.63-0.51-4.44-1.54-5.42c-1.03-0.99-2.3-1.48-3.81-1.48
				c-2.77,0-5.57,1.2-8.43,3.59c-2.85,2.39-5.62,5.45-8.29,9.16c-2.68,3.71-5.17,7.54-7.49,11.48c-2.32,3.94-4.37,7.47-6.15,10.56
				c-1.43,0-2.79-0.26-4.08-0.77c-1.29-0.52-2.3-1.29-3.01-2.32c0-0.47,0.47-1.92,1.4-4.37c0.94-2.44,2.03-5.45,3.28-9.02
				c1.25-3.57,2.36-7.23,3.34-10.99c0.98-3.75,1.47-7.18,1.47-10.28c0.54-0.66,1.38-1.31,2.54-1.97c1.16-0.66,2.36-0.99,3.61-0.99
				c2.41,0,3.61,1.22,3.61,3.66c0,1.5-0.4,4.01-1.2,7.54s-1.83,7.21-3.08,11.06c2.41-3.85,5.1-7.68,8.09-11.48
				c2.99-3.8,6.17-6.97,9.56-9.51c3.39-2.54,6.78-3.8,10.17-3.8c3.48,0,6,1.32,7.56,3.94c1.56,2.63,2.34,5.54,2.34,8.73
				c0,2.91-0.45,5.61-1.34,8.1c-0.89,2.49-1.81,4.88-2.74,7.18c-0.94,2.3-1.4,4.63-1.4,6.97c0,1.97,0.38,3.36,1.14,4.16
				c0.76,0.8,1.72,1.2,2.88,1.2c2.23,0,4.46-1.1,6.69-3.31c2.23-2.21,4.39-5,6.49-8.38c2.09-3.38,3.95-6.81,5.55-10.28l1.47,1.83
				c-1.87,4.6-3.97,8.69-6.29,12.25c-2.32,3.57-4.86,6.39-7.63,8.45C376.89,276.69,373.82,277.73,370.43,277.73z"/>
			<path class="st2" d="M399.19,278.57c-3.48,0-6.07-1.15-7.76-3.45c-1.7-2.3-2.54-5.09-2.54-8.38c0-2.16,0.38-4.88,1.14-8.17
				c0.76-3.29,1.76-6.74,3.01-10.35c1.25-3.61,2.7-7.02,4.35-10.21c1.65-3.19,3.41-5.8,5.28-7.82c1.87-2.02,3.7-3.03,5.48-3.03
				c0.8,0,1.49,0.26,2.07,0.77c0.58,0.52,0.87,1.29,0.87,2.32c0,1.13-0.69,2.96-2.07,5.49c-1.38,2.54-3.01,5.45-4.88,8.73
				c-1.87,3.29-3.5,6.74-4.88,10.35c-1.38,3.62-2.07,7.07-2.07,10.35c0,3.38,0.54,5.63,1.61,6.76c1.07,1.13,2.72,1.69,4.95,1.69
				c3.03,0,6.26-1.6,9.7-4.79c3.43-3.19,7.07-8.78,10.9-16.76l1.2,1.41c-2.59,8.08-6.31,14.28-11.17,18.59
				C409.51,276.41,404.45,278.57,399.19,278.57z M415.24,214.06c-1.43,0-2.7-0.37-3.81-1.13c-1.12-0.75-1.67-1.92-1.67-3.52
				c0-1.97,1.09-3.68,3.28-5.14c2.18-1.45,4.35-2.18,6.49-2.18c1.34,0,2.41,0.33,3.21,0.99c0.8,0.66,1.2,1.79,1.2,3.38
				c0,1.78-0.92,3.5-2.74,5.14C419.36,213.24,417.38,214.06,415.24,214.06z"/>
			<path class="st2" d="M484.53,287.17c-4.64,0-8.85-1.39-12.64-4.16c-3.79-2.77-6.8-6.76-9.03-11.97
				c-2.23-5.21-3.34-11.48-3.34-18.81c0-7.23,1.07-14.56,3.21-21.97c2.14-7.42,5.06-14.51,8.76-21.27
				c3.7-6.76,7.91-12.79,12.64-18.1c4.73-5.3,9.7-9.51,14.92-12.61c5.22-3.1,10.37-4.65,15.45-4.65c3.39,0,6.11,0.75,8.16,2.25
				c2.05,1.5,3.52,3.45,4.41,5.85c0.89,2.4,1.34,5,1.34,7.82c0,3.29-0.54,6.5-1.61,9.65c-1.07,3.15-2.5,5.75-4.28,7.82
				c-1.79,2.07-3.75,3.1-5.89,3.1c-0.71,0-1.45-0.23-2.21-0.7c-0.76-0.47-1.4-1.31-1.94-2.54c1.25-0.94,2.7-2.63,4.35-5.07
				c1.65-2.44,3.08-5.16,4.28-8.17c1.2-3,1.81-5.77,1.81-8.31c0-2.16-0.6-3.94-1.81-5.35c-1.2-1.41-3.28-2.11-6.22-2.11
				c-3.84,0-7.83,1.64-11.97,4.93c-4.15,3.29-8.16,7.68-12.04,13.17c-3.88,5.49-7.38,11.62-10.5,18.38
				c-3.12,6.76-5.6,13.66-7.42,20.71c-1.83,7.04-2.74,13.71-2.74,20c0,8.55,1.69,15.24,5.08,20.07c3.39,4.84,7.67,7.25,12.84,7.25
				c3.48,0,6.78-1.34,9.9-4.01c3.12-2.68,5.89-6.15,8.29-10.42c2.41-4.27,4.35-8.9,5.82-13.88c1.47-4.98,2.38-9.77,2.74-14.37
				c-3.3-0.75-5.98-1.24-8.03-1.48c-2.05-0.23-3.97-0.35-5.75-0.35c-1.16,0-2.39,0.02-3.68,0.07c-1.29,0.05-2.79,0.07-4.48,0.07
				c0.62-2.72,1.72-4.62,3.28-5.71c1.56-1.08,3.5-1.62,5.82-1.62c2.5,0,5.1,0.45,7.83,1.34c2.72,0.89,5.37,1.86,7.96,2.89
				c2.59,1.03,4.86,1.83,6.82,2.4l-0.94,4.51c-1.69,4.7-3.08,8.8-4.15,12.33c-1.07,3.52-1.9,6.62-2.47,9.3
				c-0.58,2.68-0.98,5.05-1.2,7.11c-0.22,2.07-0.33,3.94-0.33,5.63c0,1.88,0.07,3.71,0.2,5.49c0.13,1.78,0.24,3.61,0.33,5.49
				c-1.43-0.66-2.7-1.43-3.81-2.32c-1.12-0.89-1.96-2-2.54-3.31c-0.58-1.32-0.87-2.82-0.87-4.51c0-1.03,0.07-2.07,0.2-3.1
				s0.38-2.16,0.74-3.38c-3.21,4.69-6.91,8.64-11.1,11.83C494.52,285.57,489.79,287.17,484.53,287.17z"/>
			<path class="st2" d="M545.13,281.11c-5.44,0-9.52-1.57-12.24-4.72c-2.72-3.15-4.08-7.02-4.08-11.62c0-4.23,1-8.69,3.01-13.38
				c2.01-4.69,4.68-9.11,8.03-13.24c3.34-4.13,7.02-7.49,11.04-10.07c4.01-2.58,7.98-3.87,11.91-3.87c2.05,0,3.95,0.56,5.69,1.69
				c1.74,1.13,2.61,3.43,2.61,6.9c0,3.57-1,6.93-3.01,10.07c-2.01,3.15-4.64,5.94-7.89,8.38c-3.26,2.44-6.82,4.44-10.7,5.99
				c-3.88,1.55-7.74,2.51-11.57,2.89c-0.18,0.94-0.31,1.83-0.4,2.68c-0.09,0.85-0.13,1.64-0.13,2.4c0,1.41,0.15,2.82,0.47,4.23
				c0.31,1.41,0.87,2.7,1.67,3.87c0.8,1.18,1.89,2.09,3.28,2.75c1.38,0.66,3.1,0.99,5.15,0.99c3.83,0,7.63-1.15,11.37-3.45
				c3.75-2.3,7.22-5.33,10.43-9.09c3.21-3.75,5.93-7.89,8.16-12.4l1.61,1.27c-2.41,5.63-5.46,10.52-9.16,14.65
				c-3.7,4.13-7.71,7.35-12.04,9.65C553.98,279.96,549.59,281.11,545.13,281.11z M538.58,257.45c2.41-0.85,5.13-2.09,8.16-3.73
				c3.03-1.64,5.95-3.59,8.76-5.85s5.13-4.74,6.96-7.47c1.83-2.72,2.74-5.59,2.74-8.59c0-1.03-0.18-1.83-0.53-2.39
				c-0.36-0.56-1.12-0.85-2.27-0.85c-2.14,0-4.41,0.87-6.82,2.61c-2.41,1.74-4.73,4.01-6.96,6.83c-2.23,2.82-4.24,5.92-6.02,9.3
				C540.8,250.68,539.47,254.06,538.58,257.45z"/>
			<path class="st2" d="M618.44,277.73c-3.12,0-5.46-0.85-7.02-2.54s-2.34-3.85-2.34-6.48c0-1.97,0.33-4.04,1-6.2
				c0.67-2.16,1.31-4.39,1.94-6.69c0.62-2.3,0.94-4.53,0.94-6.69c0-2.63-0.51-4.44-1.54-5.42c-1.03-0.99-2.3-1.48-3.81-1.48
				c-2.77,0-5.57,1.2-8.43,3.59c-2.85,2.39-5.62,5.45-8.29,9.16c-2.68,3.71-5.17,7.54-7.49,11.48c-2.32,3.94-4.37,7.47-6.15,10.56
				c-1.43,0-2.79-0.26-4.08-0.77c-1.29-0.52-2.3-1.29-3.01-2.32c0-0.47,0.47-1.92,1.4-4.37c0.94-2.44,2.03-5.45,3.28-9.02
				c1.25-3.57,2.36-7.23,3.34-10.99c0.98-3.75,1.47-7.18,1.47-10.28c0.54-0.66,1.38-1.31,2.54-1.97c1.16-0.66,2.36-0.99,3.61-0.99
				c2.41,0,3.61,1.22,3.61,3.66c0,1.5-0.4,4.01-1.2,7.54s-1.83,7.21-3.08,11.06c2.41-3.85,5.1-7.68,8.09-11.48
				c2.99-3.8,6.17-6.97,9.56-9.51c3.39-2.54,6.78-3.8,10.17-3.8c3.48,0,6,1.32,7.56,3.94c1.56,2.63,2.34,5.54,2.34,8.73
				c0,2.91-0.45,5.61-1.34,8.1c-0.89,2.49-1.8,4.88-2.74,7.18c-0.94,2.3-1.4,4.63-1.4,6.97c0,1.97,0.38,3.36,1.14,4.16
				c0.76,0.8,1.72,1.2,2.88,1.2c2.23,0,4.46-1.1,6.69-3.31c2.23-2.21,4.39-5,6.49-8.38s3.95-6.81,5.55-10.28l1.47,1.83
				c-1.87,4.6-3.97,8.69-6.29,12.25c-2.32,3.57-4.86,6.39-7.63,8.45C624.9,276.69,621.82,277.73,618.44,277.73z"/>
			<path class="st2" d="M647.2,278.57c-3.48,0-6.07-1.15-7.76-3.45c-1.7-2.3-2.54-5.09-2.54-8.38c0-2.16,0.38-4.88,1.14-8.17
				c0.76-3.29,1.76-6.74,3.01-10.35c1.25-3.61,2.7-7.02,4.35-10.21c1.65-3.19,3.41-5.8,5.28-7.82c1.87-2.02,3.7-3.03,5.49-3.03
				c0.8,0,1.49,0.26,2.07,0.77c0.58,0.52,0.87,1.29,0.87,2.32c0,1.13-0.69,2.96-2.07,5.49c-1.38,2.54-3.01,5.45-4.88,8.73
				c-1.87,3.29-3.5,6.74-4.88,10.35c-1.38,3.62-2.07,7.07-2.07,10.35c0,3.38,0.54,5.63,1.61,6.76s2.72,1.69,4.95,1.69
				c3.03,0,6.26-1.6,9.7-4.79c3.43-3.19,7.07-8.78,10.9-16.76l1.2,1.41c-2.59,8.08-6.31,14.28-11.17,18.59
				C657.52,276.41,652.46,278.57,647.2,278.57z M663.25,214.06c-1.43,0-2.7-0.37-3.81-1.13c-1.12-0.75-1.67-1.92-1.67-3.52
				c0-1.97,1.09-3.68,3.28-5.14c2.18-1.45,4.35-2.18,6.49-2.18c1.34,0,2.41,0.33,3.21,0.99c0.8,0.66,1.2,1.79,1.2,3.38
				c0,1.78-0.92,3.5-2.74,5.14C667.37,213.24,665.39,214.06,663.25,214.06z"/>
			<path class="st2" d="M684.25,281.11c-5.44,0-9.52-1.57-12.24-4.72c-2.72-3.15-4.08-7.02-4.08-11.62c0-4.23,1-8.69,3.01-13.38
				c2.01-4.69,4.68-9.11,8.03-13.24c3.34-4.13,7.02-7.49,11.04-10.07c4.01-2.58,7.98-3.87,11.91-3.87c2.05,0,3.95,0.56,5.69,1.69
				c1.74,1.13,2.61,3.43,2.61,6.9c0,3.57-1,6.93-3.01,10.07c-2.01,3.15-4.64,5.94-7.89,8.38c-3.26,2.44-6.82,4.44-10.7,5.99
				c-3.88,1.55-7.74,2.51-11.57,2.89c-0.18,0.94-0.31,1.83-0.4,2.68c-0.09,0.85-0.13,1.64-0.13,2.4c0,1.41,0.16,2.82,0.47,4.23
				c0.31,1.41,0.87,2.7,1.67,3.87c0.8,1.18,1.89,2.09,3.28,2.75c1.38,0.66,3.1,0.99,5.15,0.99c3.83,0,7.63-1.15,11.37-3.45
				c3.75-2.3,7.22-5.33,10.43-9.09c3.21-3.75,5.93-7.89,8.16-12.4l1.61,1.27c-2.41,5.63-5.46,10.52-9.16,14.65
				c-3.7,4.13-7.72,7.35-12.04,9.65C693.1,279.96,688.71,281.11,684.25,281.11z M677.7,257.45c2.41-0.85,5.13-2.09,8.16-3.73
				c3.03-1.64,5.95-3.59,8.76-5.85c2.81-2.25,5.13-4.74,6.96-7.47c1.83-2.72,2.74-5.59,2.74-8.59c0-1.03-0.18-1.83-0.54-2.39
				c-0.36-0.56-1.12-0.85-2.27-0.85c-2.14,0-4.41,0.87-6.82,2.61c-2.41,1.74-4.73,4.01-6.96,6.83c-2.23,2.82-4.24,5.92-6.02,9.3
				C679.92,250.68,678.59,254.06,677.7,257.45z"/>
		</g>
	</g>
</g>
<g id="Ebene_3">
	<g>
		<g>
			<path class="st2" d="M36.4,239.92c0.41-2.67-2.46-5.93-5.43-7.43c-2.14-1.08-4.08-1.13-6.83-1.2c-2.39-0.06-3.64,0.29-4.25,0.49
				c-1.58,0.52-2.73,1.33-3.44,1.92c0.82,0.04,2.08,0.16,3.56,0.56c0.7,0.19,2.79,0.76,2.75,1.32c-0.02,0.24-0.43,0.4-1.32,0.66
				c-1.02,0.3-2.41,0.65-4.13,0.93c0.45-0.1,1.52-0.26,2.7,0.22c0.67,0.27,1.14,0.65,1.43,0.94c-0.22,0.17-0.46,0.33-0.72,0.5
				c-1.2,0.77-2.39,1.24-3.43,1.54c0.63,0.05,1.51,0.14,2.55,0.27c0.85,0.1,1.7,0.22,2.54,0.38c0.92,0.17,2.68,0.63,4.86,1.48
				c4.67,1.84,6.27,3.69,7.36,2.95c0.16-0.11,0.25-0.24,1.31-3.86C36.24,240.5,36.39,239.96,36.4,239.92z"/>
			<g>
				<path class="st2" d="M37.15,239.92c0.22-10.03-15.09-11.51-21.23-6.75c-0.56,0.44-0.04,1.24,0.53,1.28
					c0.25,0.02,4.71,0.42,4.72,1c0.01,0.37-3.65,0.93-4.06,1.01c-0.96,0.17-0.54,1.58,0.4,1.45c1.13,0.32,2.27,0.64,3.4,0.97
					c0.05-0.39,0.1-0.79,0.15-1.18c-1.28,0.88-2.45,1.46-3.96,1.96c-0.83,0.27-0.63,1.39,0.2,1.47c3.86,0.37,7.34,1.04,10.89,2.61
					c1.44,0.63,4.12,2.81,5.88,2.63c2.37-0.25,2.59-4.52,3.05-6.23c0.25-0.93-1.19-1.33-1.45-0.4c-0.28,1.03-0.63,3.97-1.39,4.68
					c-0.86,0.8-2.98-0.88-4.2-1.47c-4.13-2.01-8.25-2.88-12.78-3.31c0.07,0.49,0.13,0.98,0.2,1.47c1.56-0.51,2.96-1.17,4.32-2.11
					c0.36-0.25,0.55-0.85,0.15-1.18c-1.46-1.2-2.99-1.62-4.86-1.35c0.13,0.48,0.27,0.96,0.4,1.45c1.77-0.32,4.42-0.46,5.78-1.78
					c0.23-0.23,0.29-0.63,0.12-0.91c-1.2-1.96-4.96-2.1-6.96-2.25c0.18,0.43,0.35,0.85,0.53,1.28c5.15-3.99,18.86-2.91,18.67,5.69
					C35.63,240.88,37.13,240.88,37.15,239.92z"/>
			</g>
		</g>
		<g>
			<path class="st2" d="M156.05,133.86c-0.63,0.07-1.3,3.02-0.32,5.66c0.16,0.43,1.29,3.34,4.32,4.34c2.88,0.95,6.01-0.32,6-1
				c-0.02-0.73-3.67-0.05-6.5-2.5C156.59,137.8,156.79,133.77,156.05,133.86z"/>
			<g>
				<path class="st2" d="M155.86,133.53c-1.03,0.5-1.02,2.42-1,3.36c0.04,1.45,0.42,2.87,1.18,4.11c1.86,3.05,5.86,4.55,9.21,2.97
					c0.53-0.25,1.49-0.74,1.05-1.47c-0.46-0.76-2.88-0.69-3.62-0.92c-2.97-0.89-4.61-3.12-5.47-5.97c-0.17-0.56-0.29-1.98-1.06-2.12
					c-0.47-0.09-0.67,0.63-0.2,0.72c0.32,0.06,0.76,2.34,0.87,2.64c0.32,0.87,0.73,1.71,1.28,2.46c1.62,2.22,3.94,2.99,6.53,3.43
					c0.47,0.08,0.91-0.02,0.78,0.31c-0.12,0.31-1.38,0.55-1.64,0.6c-2.21,0.49-4.53-0.14-6.1-1.77c-0.65-0.67-1.18-1.5-1.53-2.37
					c-0.38-0.95-1.25-4.69,0.11-5.35C156.67,133.97,156.29,133.32,155.86,133.53z"/>
			</g>
		</g>
		<ellipse class="st3" cx="152.55" cy="93.36" rx="6.5" ry="10.5"/>
		<ellipse class="st3" cx="191.55" cy="84.86" rx="5.5" ry="10"/>
		<path class="st4" d="M93.78,276.37c-0.27-1.22,0.33-2.74,1.07-3.72c0.36-0.46,1.17-1.36,3.06-1.98c4.15-1.36,5.76,1.16,8.92,0.08
			c2.96-1.01,2.48-3.55,6.11-4.95c0.82-0.32,3.38-1.3,5.7-0.08c2.92,1.54,3.19,5.37,3.22,5.94c0.22,4.19-3.02,7.05-3.47,7.43
			c-3.41,2.9-7.74,2.45-12.96,1.9C102.4,280.68,94.55,279.85,93.78,276.37z"/>
		<path class="st4" d="M61.49,267.7c1.08,1.81,2.64,2.97,2.64,2.97c0.23,0.17,1.53,1.14,2.89,1.49c3.44,0.87,7.24-2.2,9.08-4.54
			c2.72-3.45,2.79-7.33,2.72-8.83c-0.06-1.3-0.28-6.13-4.21-9.25c-2.61-2.07-7.19-3.65-10.32-1.65c-2.06,1.32-2.53,3.69-3.47,8.42
			C60.22,259.41,59.35,264.12,61.49,267.7z"/>
		<path class="st4" d="M84.53,219.98c-0.52,1.45,0.67,3.13,1.9,4.87c1,1.41,2.38,3.36,5.04,4.13c2.89,0.84,5.33-0.28,5.94-0.58
			c3.01-1.44,4.17-4.11,4.46-4.87c0.65-1.69,1.49-5.4-0.33-7.02c-0.86-0.76-1.88-0.67-7.93,0.5
			C86.21,218.43,84.94,218.83,84.53,219.98z"/>
		<path class="st4" d="M129.86,228.73c-1.7,0.22-2.95,1.83-5.45,5.04c-2.36,3.03-3.78,4.91-4.13,7.76
			c-0.16,1.29-0.41,3.39,0.83,5.12c1.77,2.48,5.65,2.81,8.17,2.15c5.82-1.52,9.97-9.71,7.51-15.19
			C135.63,230.99,132.68,228.36,129.86,228.73z"/>
		<path class="st4" d="M163.96,212.05c-2.09-0.98-5.67,2.69-6.03,3.06c-2.68,2.76-3.28,6.03-3.55,7.6
			c-0.27,1.61-1.28,8.96,3.72,13.95c1.41,1.41,4.87,4.2,6.77,3.14c1.9-1.06,0.42-4.97,0.17-14.45
			C164.8,216.72,165.83,212.93,163.96,212.05z"/>
		<path class="st4" d="M136.38,183.4c-0.49,0.04-1.51,0.15-2.48,0.83c-2.36,1.64-2.75,5.52-1.9,8.17c1.66,5.15,8.23,6.37,9.08,6.52
			c1.15,0.21,7.01,1.14,11.06-2.89c2.17-2.16,3.58-5.5,3.06-8.59c-0.14-0.8-0.34-2.02-1.32-2.81c-1.54-1.24-4.01-0.61-6.11-0.08
			c-2.61,0.66-2.22,1.15-3.55,1.24C141,186.01,139.79,183.09,136.38,183.4z"/>
		<path class="st4" d="M128.45,144.01c1.24-0.51,5.3,3.86,6.28,9.17c1.53,8.35-5.06,16.52-6.44,16.02
			c-0.93-0.33,0.92-4.44,0.74-13.38C128.88,148.22,127.4,144.44,128.45,144.01z"/>
		<path class="st4" d="M159.53,55.17c-0.66-0.01-1.76-0.03-2.81,0.58c-2.18,1.26-3.01,4.24-2.31,6.61c0.04,0.15,1.01,3.41,3.39,3.72
			c1.82,0.24,3.24-1.42,4.38-2.72c0.77-0.89,1.85-2.13,1.9-3.96c0.01-0.46,0.06-1.95-0.99-3.06C162,55.19,160.46,55.18,159.53,55.17
			z"/>
		<path class="st4" d="M165.61,261.84c-1.03-0.54-3.59,1.07-4.18,3.52c-0.69,2.84,1.57,5.56,2.75,5.39
			C166.04,270.49,167.34,262.75,165.61,261.84z"/>
		<path class="st4" d="M85.79,287.27c-1.5-0.88-4.22,0.21-5.28,1.98c-2.1,3.49,2.56,9.21,4.51,8.81
			C87.22,297.61,88.59,288.92,85.79,287.27z"/>
	</g>
	<path class="st15" d="M50.01,231.73"/>
	<path class="st15" d="M47.73,224.54"/>
	<path class="st15" d="M39.06,105.23"/>
	<ellipse class="st16" cx="150.55" cy="89.86" rx="1.5" ry="2"/>
	<ellipse class="st16" cx="190.06" cy="83.43" rx="1" ry="1.5"/>
	<path class="st15" d="M187.56,122.43"/>
	<path class="st15" d="M186.56,34.43"/>
	<path class="st15" d="M186.56,35.43"/>
	<path class="st15" d="M186.56,26.43"/>
	<path class="st15" d="M139.55,26.36"/>
	<path class="st15" d="M140.55,42.36"/>
	<path class="st15" d="M163.55,31.36"/>
	<path class="st15" d="M128.55,56.36"/>
	<path class="st15" d="M131.55,55.36"/>
	<path class="st15" d="M128.55,68.36"/>
	<path class="st15" d="M130.55,73.36"/>
	<path class="st15" d="M125.55,62.36"/>
	<path class="st15" d="M123.55,72.36"/>
	<path class="st15" d="M117.55,70.36"/>
	<path class="st15" d="M116.55,66.36"/>
	<path class="st15" d="M128.55,69.36"/>
	<path class="st15" d="M124.51,80.93"/>
	<path class="st15" d="M128.78,111.07"/>
	<path class="st17" d="M173.65,106.83"/>
	<g>
		<g>
			<path class="st2" d="M187.9,123.57c0.18-1.55,0.05-3.1-0.33-4.62c-0.47-1.87-3.37-1.08-2.89,0.8c0.32,1.27,0.37,2.52,0.22,3.82
				c-0.09,0.81,0.75,1.5,1.5,1.5C187.29,125.07,187.81,124.38,187.9,123.57L187.9,123.57z"/>
		</g>
	</g>
	<g>
		<g>
			<g>
				<path class="st2" d="M54.06,75.37c3.46-1.45,3.34-7.98,4.85-10.94c2.64-5.16,7.42-8.97,12.67-11.26
					c8.83-3.85,20.5-2.79,26.22,5.74c4.4,6.55,4.16,14.46,1.45,21.51c-1.27,3.3-3.02,6.39-5.15,9.2c-1.01,1.32-2.08,2.61-3.26,3.79
					c-0.68,0.68-0.67,0.78,0.1-0.13c-0.87,1.02-1.72,2.04-2.64,3.02c-6.41,6.91-13.79,12.95-21.37,18.51c-3,2.2-6.05,4.31-9.15,6.36
					c-1.52,1.01-3.12,2.35-4.79,3.09c-1.97,0.88-0.99,1.07-3.58,0.6c-1.94-0.35-2.67-1.05-4.11-2.23
					c-5.44-4.45-10.68-9.17-15.57-14.23C18.58,96.83,9.53,84.04,8.22,67.68c-1.39-17.42,17.6-22.57,29.84-13.82
					c3.84,2.74,7,6.23,9.19,10.41c1.25,2.39,2.56,10.53,6.02,11.11c1.89,0.32,2.7-2.57,0.8-2.89c-1.07-0.18-2.45-5.84-2.86-6.81
					c-1.19-2.77-2.62-5.42-4.51-7.78c-2.61-3.26-5.94-6.12-9.55-8.2C28,44.42,15.09,45.23,8.49,54.27
					c-6.82,9.33-2.1,23.67,2.02,33.18c2.69,6.22,7.18,11.84,11.54,16.94c4.81,5.63,10.11,10.83,15.67,15.72
					c4.06,3.56,9.19,10.51,15.11,7.78c7.35-3.39,14.39-9.42,20.76-14.38c4.65-3.62,9.16-7.44,13.38-11.56
					c10.01-9.77,20.29-22.74,16.4-37.72c-3.4-13.12-16.79-18.57-29.22-15.16c-3.87,1.06-7.57,3.02-10.72,5.47
					c-2.92,2.26-5.41,5.09-7.12,8.38c-0.81,1.57-1.43,3.24-1.93,4.93c-0.11,0.36-0.81,4.5-1.13,4.64
					C51.5,73.22,52.27,76.12,54.06,75.37z"/>
			</g>
		</g>
		<g>
			<g>
				<path class="st2" d="M34.74,104.16c1.93,4.7,5.28,8.54,9.8,10.91c1.71,0.9,3.23-1.69,1.51-2.59c-3.78-1.99-6.79-5.15-8.42-9.12
					C36.91,101.6,34,102.37,34.74,104.16L34.74,104.16z"/>
			</g>
		</g>
		<g>
			<g>
				<path class="st2" d="M48.76,128.49c0.55,12.15-1.3,23.48-3.38,35.37c-2.05,11.71-1.91,23.54-1.98,35.38
					c-0.08,14.4-1.46,27.64,11,37.51c1.5,1.19,3.63-0.92,2.12-2.12c-5.51-4.37-9.12-9.82-9.77-16.77
					c-0.72-7.8-0.39-15.74-0.32-23.56c0.09-11.5,0.4-22.72,2.67-34.04c2.12-10.54,3.14-21,2.65-31.77
					C51.67,126.57,48.67,126.56,48.76,128.49L48.76,128.49z"/>
			</g>
		</g>
		<g>
			<g>
				<path class="st2" d="M48.24,228.29c-2.3,3.38-7.82-0.19-10.6-1.51c-0.89-0.42-3.82-1.4-4.23-2.42
					c-0.94-2.31,2.97-4.31,4.84-3.91c2.29,0.49,3.59,3.32,4.84,5.16c1.64,2.41,3.86,7.54,7.66,5.9c3.14-1.36,5.93-6.78,7.51-9.64
					c1.34-2.43,3.02-4.91,1.55-7.63c-1.19-2.19-4.16-3.9-6.63-4.12C44.36,209.34,50.66,223.9,48.24,228.29
					c-0.93,1.69,1.66,3.21,2.59,1.51c1.72-3.1,0.95-6.79,0.78-10.18c-0.12-2.33-0.69-7.74,3.27-5.87c3.79,1.79,1.9,4.63,0.45,7.21
					c-0.75,1.34-3.2,6.28-4.78,6.76c-3.04,0.92-5.29-4.38-6.71-6.31c-1.6-2.18-3.3-4.41-6.25-4.33c-4.43,0.12-10,5.83-5.96,9.69
					c2.64,2.53,7.19,3.92,10.49,5.22c3.62,1.42,6.43,1.18,8.72-2.19C51.92,228.21,49.32,226.7,48.24,228.29z"/>
			</g>
		</g>
		<g>
			<g>
				<path class="st2" d="M52.66,228.35c1.63-1.74,3.36-3.85,5.52-4.95c3.44-1.74,8.1-0.65,9.43,3.13c0.83,2.36,0.23,2.29-1.1,4.38
					c-1.09,1.71-2.06,3.48-2.97,5.28c0.91,0.12,1.83,0.24,2.74,0.36c-1.23-3.2-4.4-7.64-8.4-7.15c-1.4,0.17-2.34,1.02-3.21,2.05
					c-2.37,2.8-3.17,6.32-6.01,8.91c-2.15,1.96-5.62,4.44-8.65,4.37c-6.34-0.13,0.39-4.87,2.79-5.98
					C48.05,236.3,49.03,232.5,52.66,228.35c1.26-1.45-0.85-3.58-2.12-2.12c-1.93,2.21-3.03,4.95-4.89,7.14
					c-2.06,2.42-5.39,2.73-7.84,4.53c-2.57,1.89-5.92,6.89-2.07,9.29c3.68,2.3,9.68-0.69,12.66-2.79c2.07-1.46,3.92-3.25,5.39-5.32
					c0.95-1.33,1.6-3.94,2.76-4.98c3.38-3.04,5.82,0.6,6.84,3.26c0.42,1.1,2.11,1.61,2.74,0.36c2.75-5.44,8.34-10.1,2.37-15.37
					c-6.53-5.76-13.02-1.39-17.95,3.89C49.22,227.63,51.33,229.76,52.66,228.35z"/>
			</g>
		</g>
		<g>
			<g>
				<path class="st2" d="M80.37,274.27c15.44,9.22,37.69,13.05,53.09,1.73c1.54-1.13,0.04-3.74-1.51-2.59
					c-14.56,10.71-35.46,6.98-50.06-1.73C80.23,270.69,78.72,273.28,80.37,274.27L80.37,274.27z"/>
			</g>
		</g>
		<g>
			<g>
				<path class="st2" d="M67.05,304.85c6.09,3.27,13.52,5.83,19.25,0.66c1.44-1.3-0.69-3.41-2.12-2.12
					c-4.56,4.12-10.93,1.39-15.62-1.13C66.86,301.34,65.35,303.93,67.05,304.85L67.05,304.85z"/>
			</g>
		</g>
		<g>
			<g>
				<path class="st2" d="M85.3,307.85c4.47,1.99,9.74,1.92,13.1-2.06c1.24-1.47-0.87-3.6-2.12-2.12c-2.44,2.89-6.15,3.07-9.47,1.59
					C85.06,304.48,83.54,307.06,85.3,307.85L85.3,307.85z"/>
			</g>
		</g>
		<g>
			<g>
				<path class="st2" d="M84.82,315.91c5.41,1.28,12.05,1.4,14.03-4.91c1.06-3.39,0.81-7.28,1-10.77
					c0.33-6.03,1.04-12.02,2.18-17.95c0.36-1.89-2.53-2.69-2.89-0.8c-1.38,7.18-2.07,14.39-2.42,21.7
					c-0.12,2.44,0.15,5.89-1.18,8.09c-2.08,3.43-6.65,2.52-9.91,1.75C83.74,312.58,82.94,315.47,84.82,315.91L84.82,315.91z"/>
			</g>
		</g>
		<g>
			<g>
				<path class="st2" d="M150.26,271.75c-0.83,9.28-1.93,18.54-3.36,27.75c-0.29,1.87-0.59,3.73-0.91,5.6
					c-0.28,1.67-0.29,6.11-1.45,7.38c-2.59,2.81-9.44-0.2-12.44-1.11c0.37,0.48,0.73,0.96,1.1,1.45
					c-0.84-11.39-2.6-22.65-5.29-33.75c-0.45-1.88-3.35-1.08-2.89,0.8c2.63,10.84,4.36,21.83,5.18,32.95
					c0.05,0.68,0.43,1.24,1.1,1.45c3.53,1.07,7.96,2.88,11.69,2.25c4.38-0.74,4.74-4.06,5.4-7.82c2.16-12.24,3.75-24.56,4.86-36.94
					C153.44,269.83,150.44,269.84,150.26,271.75L150.26,271.75z"/>
			</g>
		</g>
		<g>
			<g>
				<path class="st2" d="M167.48,160.14c-3.09,7.05-3.14,14.23-3.52,21.78c-0.28,5.71-0.47,11.43-0.47,17.15
					c0,12.59,0.35,25.17,0.74,37.75c0.25,8.08,1.18,16.42,0.82,24.48c-0.22,4.93-0.98,9.9-1.55,14.8
					c-0.85,7.26-1.98,14.45-3.3,21.64c-0.33,1.8-0.64,3.6-1.03,5.38c-0.36,1.67-0.89,6.46-2.39,7.48c-1.82,1.25-6.57-0.51-8.62-0.99
					c-1.88-0.44-2.68,2.45-0.8,2.89c2.83,0.67,7.44,2.22,10.28,1.01c3.94-1.68,4.28-8.77,4.95-12.28
					c2.11-11.01,3.63-22.06,4.79-33.21c1.19-11.48,0.08-23.01-0.26-34.53c-0.32-10.64-0.58-21.29-0.63-31.94
					c-0.02-5.04,0.03-10.08,0.25-15.11c0.35-8.28-0.06-17.07,3.32-24.79C170.84,159.91,168.25,158.38,167.48,160.14L167.48,160.14z"
					/>
			</g>
		</g>
		<g>
			<g>
				<path class="st2" d="M130.2,304.24c5.04,4.13,12.18,4.59,17.56,0.79c1.56-1.11,0.07-3.71-1.51-2.59
					c-4.2,2.97-9.89,2.99-13.93-0.32C130.84,300.9,128.71,303.01,130.2,304.24L130.2,304.24z"/>
			</g>
		</g>
		<g>
			<g>
				<path class="st2" d="M146.84,303.91c4.26,3.65,10.19,3.66,14.54,0.16c1.51-1.21-0.63-3.32-2.12-2.12
					c-3.01,2.41-7.38,2.34-10.3-0.16C147.51,300.54,145.38,302.65,146.84,303.91L146.84,303.91z"/>
			</g>
		</g>
		<g>
			<g>
				<path class="st2" d="M125.39,81.59c-0.91,13.01-1.18,26.08-0.64,39.12c0.43,10.44,1.58,20.84,1.84,31.28
					c0.19,8.05,0.14,16.19-1.31,24.13c-0.86,4.73-2.05,9.39-3.5,13.97c-2.08,6.56-4.33,14.14-8.45,19.73
					c-4.19,5.7-11.87,4.11-18.08,4.91c-6.05,0.78-12.07,2.45-17.35,5.57c-10.07,5.95-14.92,16.59-17.3,27.65
					c-2.61,12.08-2.68,25.28,0.38,37.26c1.36,5.34,2.71,10.69,3.9,16.07c0.8,3.6,0.89,7.83,2.19,11.26
					c3.11,8.22,17.75,9.04,19.84-0.29c0.93-4.17,0.26-8.88,0.45-13.14c0.33-7.46,1.08-14.91,1.92-22.33c0.22-1.92-2.79-1.9-3,0
					c-1.18,10.42-1.87,20.74-2.06,31.21c-0.05,2.87,0.03,6.54-3.6,7.75c-3.4,1.13-9.2-0.96-10.62-4.15c-1.27-2.88-1.32-6.92-1.98-10
					c-2.52-11.66-6.15-22.76-6.22-34.81c-0.08-11.81,1.62-25.22,8.37-35.24c7.5-11.12,20.6-13.78,33.11-14.37
					c10.48-0.49,13.79-6.86,17.54-15.82c6.66-15.91,9.15-31.64,8.8-48.74c-0.22-10.41-1.36-20.77-1.82-31.17
					c-0.59-13.29-0.32-26.62,0.61-39.89C128.52,79.66,125.52,79.67,125.39,81.59L125.39,81.59z"/>
			</g>
		</g>
		<g>
			<g>
				<path class="st2" d="M131.55,54.86c-5.8-0.13-12.78-2.35-18.43-0.41c-5.65,1.94-7.66,7.77-7.64,13.34
					c0.02,5.32,4.03,7.4,8.27,9.51c4.15,2.07,8.45,3.87,12.75,5.59c1.79,0.72,2.57-2.19,0.8-2.89c-5.26-2.1-14.19-4.39-17.58-9.12
					c-1.87-2.61-1.38-6.36-0.04-9.29c1.64-3.58,5-4.94,8.81-4.84c4.36,0.12,8.67,1.01,13.05,1.11
					C133.48,57.9,133.48,54.9,131.55,54.86L131.55,54.86z"/>
			</g>
		</g>
		<g>
			<g>
				<path class="st2" d="M130.03,62.99c-4.28-2.34-11.83-4.46-14.6,1.16c-3.48,7.05,6.81,9.93,11.72,10.66
					c1.89,0.28,2.7-2.61,0.8-2.89c-2.7-0.4-12.64-2.31-9.61-6.85c2.14-3.2,7.63-0.88,10.17,0.52
					C130.21,66.5,131.72,63.91,130.03,62.99L130.03,62.99z"/>
			</g>
		</g>
		<g>
			<g>
				<path class="st2" d="M129.32,73.41c0.35-2.93,0.87-5.82,1.53-8.7c0.43-1.88-2.47-2.68-2.89-0.8c-0.71,3.14-1.25,6.3-1.63,9.5
					C126.09,75.32,129.09,75.31,129.32,73.41L129.32,73.41z"/>
			</g>
		</g>
		<g>
			<g>
				<path class="st2" d="M133,56.75c2.36-5.89,6-11.01,10.61-15.34c1.41-1.32-0.71-3.44-2.12-2.12c-5.01,4.7-8.83,10.28-11.39,16.66
					C129.39,57.75,132.29,58.53,133,56.75L133,56.75z"/>
			</g>
		</g>
		<g>
			<g>
				<path class="st2" d="M147.54,47.61c-1.85-6.22-3.7-12.44-5.54-18.65c-0.55-1.85-3.44-1.06-2.89,0.8
					c1.85,6.22,3.7,12.44,5.54,18.65C145.2,50.25,148.09,49.47,147.54,47.61L147.54,47.61z"/>
			</g>
		</g>
		<g>
			<g>
				<path class="st2" d="M155.76,41.11c-3.68-4.93-6.99-10.1-9.92-15.51c-0.92-1.7-3.51-0.19-2.59,1.51
					c2.93,5.41,6.23,10.58,9.92,15.51C154.32,44.15,156.92,42.66,155.76,41.11L155.76,41.11z"/>
			</g>
		</g>
		<g>
			<g>
				<path class="st2" d="M132.3,22.02c0.09,4.53,2.61,8.91,7.8,8.11c4.2-0.64,6.3-4.29,6.57-8.23c0.31-4.46-2.18-8.86-7.11-8.86
					C134.46,13.03,132.23,17.52,132.3,22.02c0.03,1.93,3.03,1.93,3,0c-0.04-2.78,0.84-5.99,4.27-5.98c3.29,0.01,4.33,3.11,4.11,5.86
					c-0.17,2.06-0.93,4.19-3.01,5.02c-3.73,1.47-5.3-1.86-5.36-4.9C135.26,20.09,132.25,20.08,132.3,22.02z"/>
			</g>
		</g>
		<g>
			<g>
				<path class="st2" d="M151.72,36.03c5.85-4.29,16.43-4.46,23.08-2.07c1.82,0.65,2.6-2.24,0.8-2.89
					c-7.36-2.65-18.9-2.39-25.39,2.37C148.66,34.57,150.16,37.18,151.72,36.03L151.72,36.03z"/>
			</g>
		</g>
		<g>
			<g>
				<path class="st2" d="M178.1,18.96c-2.1,6.45-3.42,13.05-4,19.81c-0.17,1.92,2.84,1.91,3,0c0.56-6.5,1.87-12.82,3.89-19.01
					C181.6,17.91,178.7,17.13,178.1,18.96L178.1,18.96z"/>
			</g>
		</g>
		<g>
			<g>
				<path class="st2" d="M184.05,20.36c0.46,6.45,0.29,12.89-0.58,19.31c-0.26,1.89,2.63,2.7,2.89,0.8
					c0.91-6.69,1.17-13.36,0.69-20.1C186.91,18.44,183.91,18.43,184.05,20.36L184.05,20.36z"/>
			</g>
		</g>
		<g>
			<g>
				<path class="st2" d="M180.61,18.3c-1.85-1.5-2.43-4.08-1.93-6.38c0.59-2.71,3.15-5.46,5.79-3.02c1.76,1.63,2.06,4.2,1.71,6.45
					c-0.48,3.02-3.2,4.16-5.86,2.71c-1.7-0.92-3.21,1.67-1.51,2.59c3.37,1.82,8.39,1.21,9.89-2.82c1.42-3.81,0.62-8.76-2.53-11.46
					c-3.24-2.78-7.61-1.25-9.48,2.3c-1.94,3.67-1.53,9.03,1.82,11.75C179.98,21.62,182.11,19.51,180.61,18.3z"/>
			</g>
		</g>
		<g>
			<g>
				<path class="st2" d="M137.4,132.69c6.55-8.68,15.67-15.84,25.61-20.2c17-7.46,36.3-5.33,51.94,4.34
					c1.65,1.02,3.16-1.58,1.51-2.59c-16.04-9.92-35.84-12.26-53.41-5c-11.07,4.57-21.02,12.38-28.24,21.94
					C133.65,132.71,136.25,134.21,137.4,132.69L137.4,132.69z"/>
			</g>
		</g>
		<g>
			<g>
				<path class="st2" d="M124.75,104.58c4.36,15.9,8.87,34.95,21.75,46.34c10.56,9.34,25.38,12.98,38.89,8.46
					c11.61-3.89,22.51-13.26,27.64-24.43c7.01-15.27,5.77-32.87,2.2-48.85c-4.43-19.8-11.08-38.51-27.93-51.04
					c-1.55-1.15-3.05,1.45-1.51,2.59c14.33,10.67,20.41,25.83,24.87,42.52c4.02,15.02,6.64,31.6,2.12,46.81
					c-7.88,26.51-40.55,41.57-63.38,22.49c-13.08-10.93-17.46-29.98-21.76-45.69C127.13,101.93,124.24,102.72,124.75,104.58
					L124.75,104.58z"/>
			</g>
		</g>
		<g>
			<g>
				<path class="st2" d="M171.87,121.98c0.21,1.12,0.25,2.24,0.18,3.38c-0.12,1.93,2.88,1.92,3,0c0.09-1.4-0.03-2.79-0.29-4.17
					c-0.15-0.8-1.11-1.25-1.85-1.05C172.08,120.36,171.72,121.18,171.87,121.98L171.87,121.98z"/>
			</g>
		</g>
		<g>
			<g>
				<path class="st2" d="M190.71,39.45c5.45-1.18,14.21,0.52,19.01,3.48c8.57,5.28-1.06,11.33-6.23,13.59
					c-1.76,0.77-0.24,3.36,1.51,2.59c5.18-2.27,14.94-8.23,10.44-15.09c-4.5-6.84-18.16-9.07-25.53-7.46
					C188.03,36.96,188.83,39.86,190.71,39.45L190.71,39.45z"/>
			</g>
		</g>
		<g>
			<g>
				<path class="st2" d="M197.53,48.23c1.16-0.03,2.32-0.05,3.48-0.04c1.06,0.01,2.55-0.15,3.58,0.17c1.03,0.32,1.51,1.69,0.96,2.59
					c-0.5,0.82-2.62,1.61-3.42,2.07c-1.68,0.95-0.17,3.55,1.51,2.59c1.55-0.88,4.06-1.71,4.81-3.46c0.57-1.33,0.34-3.27-0.3-4.54
					c-1.73-3.43-7.49-2.47-10.62-2.38C195.61,45.29,195.6,48.29,197.53,48.23L197.53,48.23z"/>
			</g>
		</g>
		<ellipse class="st8" cx="154.55" cy="93.36" rx="9" ry="12.5"/>
		<ellipse class="st8" cx="194.55" cy="84.36" rx="8.5" ry="12.5"/>
		<path class="st9" d="M185.55,121.36"/>
		<path class="st9" d="M79.3,307.75"/>
	</g>
	<path class="st18" d="M162.56,56.98"/>
</g>
</svg>
